<svg xmlns="http://www.w3.org/2000/svg" viewBox="408.5 3597.5 98.5 59.004">
  <defs>
    <style>
      .cls-1 {
        fill: #009ae9;
        stroke: #fff;
      }
    </style>
  </defs>
  <g id="car" transform="translate(409 3496.324)">
    <g id="Group_172" data-name="Group 172" transform="translate(0 101.676)">
      <g id="Group_171" data-name="Group 171" transform="translate(0 0)">
        <path id="Path_197" data-name="Path 197" class="cls-1" d="M89.019,121.224H76.4L61.3,104.869c-.026-.028-.053-.056-.081-.083-2-1.92-3.8-3.11-6.6-3.11H33.941c-4.648,0-8.027,2.121-10.957,6.876-.012.019-.023.038-.034.058l-7.182,12.614H14.631A14.648,14.648,0,0,0,0,135.856V147.25a1.942,1.942,0,0,0,1.942,1.942h7.55a12.525,12.525,0,0,0,24.716,0H63.681a12.525,12.525,0,0,0,24.716,0h7.161A1.942,1.942,0,0,0,97.5,147.25V129.705A8.491,8.491,0,0,0,89.019,121.224ZM34.377,105.561H54.624c1.382,0,2.255.447,3.865,1.987l12.627,13.676H53.8v-4.981a1.942,1.942,0,0,0-3.884,0v4.981H34.377Zm-8.068,5a10.623,10.623,0,0,1,4.184-4.28v14.943H20.238Zm4.183,36.6c0,.024,0,.048,0,.072a8.641,8.641,0,0,1-17.281,0c0-.03,0-.06,0-.1a8.643,8.643,0,0,1,17.286,0Zm54.188,0c0,.024,0,.048,0,.072a8.641,8.641,0,0,1-17.281,0c0-.03,0-.06,0-.1a8.643,8.643,0,0,1,17.286,0Zm8.935-9.038h-1.36a1.942,1.942,0,1,0,0,3.884h1.36v3.3H88.43a12.529,12.529,0,0,0-24.784,0h-29.4a12.529,12.529,0,0,0-24.784,0H3.884v-3.3H5.632a1.942,1.942,0,1,0,0-3.884H3.884v-2.266a10.759,10.759,0,0,1,10.747-10.747H89.019a4.6,4.6,0,0,1,4.541,3.884H87.206a1.942,1.942,0,1,0,0,3.884h6.409Z" transform="translate(0 -101.676)"/>
        <path id="Path_198" data-name="Path 198" class="cls-1" d="M258.942,137.79a1.942,1.942,0,0,0,1.942-1.942v-.583a1.942,1.942,0,1,0-3.884,0v.583A1.942,1.942,0,0,0,258.942,137.79Z" transform="translate(-207.085 -127.176)"/>
        <path id="Path_199" data-name="Path 199" class="cls-1" d="M212.53,289.323H191.942a1.942,1.942,0,1,0,0,3.884H212.53a1.942,1.942,0,1,0,0-3.884Z" transform="translate(-153.098 -252.878)"/>
        <path id="Path_200" data-name="Path 200" class="cls-1" d="M86.876,304.023A6.183,6.183,0,0,0,80.7,310.2c0,.025,0,.049,0,.075a6.175,6.175,0,0,0,12.35,0c0-.025,0-.051,0-.076A6.183,6.183,0,0,0,86.876,304.023Zm2.291,6.2a2.291,2.291,0,0,1-4.582,0c0-.01,0-.028,0-.044a2.292,2.292,0,0,1,4.583,0C89.168,310.195,89.167,310.211,89.167,310.221Z" transform="translate(-65.026 -264.723)"/>
        <path id="Path_201" data-name="Path 201" class="cls-1" d="M365.876,304.023A6.183,6.183,0,0,0,359.7,310.2c0,.025,0,.049,0,.075a6.175,6.175,0,0,0,12.35,0c0-.025,0-.051,0-.076A6.183,6.183,0,0,0,365.876,304.023Zm2.291,6.2a2.291,2.291,0,0,1-4.582,0c0-.01,0-.028,0-.044a2.292,2.292,0,0,1,4.583,0C368.168,310.195,368.167,310.211,368.167,310.221Z" transform="translate(-289.838 -264.723)"/>
      </g>
    </g>
  </g>
</svg>
