<svg xmlns="http://www.w3.org/2000/svg" viewBox="1076 4173 102.351 67.975">
  <defs>
    <style>
      .cls-1 {
        fill: #009ae9;
      }
    </style>
  </defs>
  <g id="Group_344" data-name="Group 344" transform="translate(1.351 -0.125)">
    <g id="taxi_1_" data-name="taxi (1)" transform="translate(1074.65 4134.019)">
      <g id="Group_287" data-name="Group 287" transform="translate(43.937 73.981)">
        <g id="Group_286" data-name="Group 286">
          <path id="Path_257" data-name="Path 257" class="cls-1" d="M342.533,201.593h-2.374a1.113,1.113,0,1,0,0,2.227h2.374a1.113,1.113,0,0,0,0-2.227Z" transform="translate(-339.045 -201.593)"/>
        </g>
      </g>
      <g id="Group_289" data-name="Group 289" transform="translate(18.144 82.293)">
        <g id="Group_288" data-name="Group 288">
          <path id="Path_258" data-name="Path 258" class="cls-1" d="M169.587,266.621a2.287,2.287,0,0,0-1.814-.885H142.316a2.3,2.3,0,0,0-2.232,2.859l.594,2.375a2.3,2.3,0,0,0,2.232,1.743h24.27a2.3,2.3,0,0,0,2.232-1.743l.594-2.375A2.286,2.286,0,0,0,169.587,266.621Zm-1.741,1.434-.594,2.375a.074.074,0,0,1-.072.056h-24.27a.074.074,0,0,1-.072-.056l-.594-2.375a.074.074,0,0,1,.072-.092h25.458a.074.074,0,0,1,.072.092Z" transform="translate(-140.014 -265.736)"/>
        </g>
      </g>
      <g id="Group_291" data-name="Group 291" transform="translate(0 54.981)">
        <g id="Group_290" data-name="Group 290">
          <path id="Path_259" data-name="Path 259" class="cls-1" d="M62.862,76.207a3.488,3.488,0,0,0,0-6.976H61.675a3.494,3.494,0,0,0-3.444,2.933L55.261,64a4.69,4.69,0,0,0-4.394-3.078H42.4l-.627-3.133a3.5,3.5,0,0,0-3.42-2.8H28a3.5,3.5,0,0,0-3.42,2.8l-.627,3.133H15.483A4.69,4.69,0,0,0,11.089,64l-2.97,8.167a3.494,3.494,0,0,0-3.443-2.933H3.488a3.488,3.488,0,1,0,0,6.976H4.676A3.466,3.466,0,0,0,6.2,75.853L3.66,79.035A5.884,5.884,0,0,0,2.375,82.7v22.083a2.3,2.3,0,0,0,2.3,2.3H8.238a2.3,2.3,0,0,0,2.3-2.3V99.957H55.812v4.824a2.3,2.3,0,0,0,2.3,2.3h3.562a2.3,2.3,0,0,0,2.3-2.3V82.7a5.884,5.884,0,0,0-1.285-3.663l-2.545-3.182a3.466,3.466,0,0,0,1.529.354ZM4.676,73.981H3.488a1.262,1.262,0,1,1,0-2.523H4.676a1.262,1.262,0,0,1,0,2.523ZM26.76,58.222A1.265,1.265,0,0,1,28,57.207H38.353a1.265,1.265,0,0,1,1.237,1.014l.539,2.7H26.221ZM8.312,104.781a.074.074,0,0,1-.074.074H4.676a.074.074,0,0,1-.074-.074V99.262a4.647,4.647,0,0,0,2.449.695H8.312v4.824Zm38-7.051H20.039V95.281a.074.074,0,0,1,.074-.074H46.238a.074.074,0,0,1,.074.074V97.73Zm15.437,7.051a.074.074,0,0,1-.074.074H58.112a.074.074,0,0,1-.074-.074V99.957H59.3a4.647,4.647,0,0,0,2.449-.695v5.519Zm-.8-24.355a3.651,3.651,0,0,1,.8,2.272V95.281A2.452,2.452,0,0,1,59.3,97.73H48.538V95.281a2.3,2.3,0,0,0-2.3-2.3H20.113a2.3,2.3,0,0,0-2.3,2.3V97.73H7.051A2.452,2.452,0,0,1,4.6,95.281V82.7a3.65,3.65,0,0,1,.8-2.272l3.375-4.219H40.3a1.113,1.113,0,0,0,0-2.227H9.828l3.354-9.224a2.456,2.456,0,0,1,2.3-1.612H50.867a2.457,2.457,0,0,1,2.3,1.612l3.354,9.224H52.175a1.113,1.113,0,1,0,0,2.227h5.4Zm-.539-7.707a1.263,1.263,0,0,1,1.262-1.262h1.187a1.262,1.262,0,1,1,0,2.523H61.675A1.263,1.263,0,0,1,60.413,72.719Z" transform="translate(0 -54.981)"/>
        </g>
      </g>
      <g id="Group_293" data-name="Group 293" transform="translate(9.5 90.605)">
        <g id="Group_292" data-name="Group 292">
          <path id="Path_260" data-name="Path 260" class="cls-1" d="M75.607,329.879a2.3,2.3,0,1,0,2.3,2.3A2.3,2.3,0,0,0,75.607,329.879Z" transform="translate(-73.306 -329.879)"/>
        </g>
      </g>
      <g id="Group_295" data-name="Group 295" transform="translate(52.249 90.605)">
        <g id="Group_294" data-name="Group 294">
          <path id="Path_261" data-name="Path 261" class="cls-1" d="M405.487,329.879a2.3,2.3,0,1,0,2.3,2.3A2.3,2.3,0,0,0,405.487,329.879Z" transform="translate(-403.186 -329.879)"/>
        </g>
      </g>
      <g id="Group_297" data-name="Group 297" transform="translate(7.125 81.105)">
        <g id="Group_296" data-name="Group 296">
          <path id="Path_262" data-name="Path 262" class="cls-1" d="M59.062,256.573a4.082,4.082,0,1,0,4.082,4.082A4.087,4.087,0,0,0,59.062,256.573Zm0,5.937a1.855,1.855,0,1,1,1.855-1.855A1.858,1.858,0,0,1,59.062,262.51Z" transform="translate(-54.98 -256.573)"/>
        </g>
      </g>
      <g id="Group_299" data-name="Group 299" transform="translate(51.062 81.105)">
        <g id="Group_298" data-name="Group 298">
          <path id="Path_263" data-name="Path 263" class="cls-1" d="M398.1,256.573a4.082,4.082,0,1,0,4.082,4.082A4.087,4.087,0,0,0,398.1,256.573Zm0,5.937a1.855,1.855,0,1,1,1.855-1.855A1.858,1.858,0,0,1,398.1,262.51Z" transform="translate(-394.022 -256.573)"/>
        </g>
      </g>
    </g>
    <g id="destination" transform="translate(1097.767 4173.125)">
      <g id="Group_305" data-name="Group 305" transform="translate(52.673 0)">
        <g id="Group_304" data-name="Group 304" transform="translate(0 0)">
          <path id="Path_266" data-name="Path 266" class="cls-1" d="M333.936,29.491c.517-.554,1.049-1.151,1.582-1.789,4.226-5.048,6.369-9.9,6.369-14.423A13.282,13.282,0,0,0,316.371,8.11a1.015,1.015,0,0,0,1.87.791,11.252,11.252,0,0,1,21.616,4.379c0,8.389-8.807,16.425-11.25,18.493-.538-.455-1.386-1.2-2.379-2.174a1.014,1.014,0,0,0-.451-.449c-3.5-3.529-8.418-9.6-8.418-15.87a1.015,1.015,0,1,0-2.03,0c0,4.523,2.143,9.375,6.369,14.423.533.637,1.065,1.234,1.581,1.788-2.617.786-4.127,2.124-4.127,3.736,0,1.359,1.1,2.557,3.1,3.373a19.177,19.177,0,0,0,12.7,0c2-.816,3.1-2.014,3.1-3.373C338.063,31.618,336.551,30.278,333.936,29.491Zm-5.329,6.16c-4.805,0-7.426-1.6-7.426-2.425,0-.536,1.192-1.518,3.739-2.059a39.656,39.656,0,0,0,3.067,2.721,1.015,1.015,0,0,0,1.243,0,39.614,39.614,0,0,0,3.067-2.721,9.3,9.3,0,0,1,2.8,1.015c.585.356.933.746.933,1.044C336.033,34.049,333.412,35.651,328.607,35.651Z" transform="translate(-315.327 0)"/>
        </g>
      </g>
      <g id="Group_307" data-name="Group 307" transform="translate(60.046 7.373)">
        <g id="Group_306" data-name="Group 306">
          <path id="Path_267" data-name="Path 267" class="cls-1" d="M375.766,54.532a5.907,5.907,0,1,0,5.907,5.907A5.914,5.914,0,0,0,375.766,54.532Zm0,9.783a3.877,3.877,0,1,1,3.877-3.877A3.881,3.881,0,0,1,375.766,64.315Z" transform="translate(-369.859 -54.532)"/>
        </g>
      </g>
      <g id="Group_309" data-name="Group 309" transform="translate(50.432 32.211)">
        <g id="Group_308" data-name="Group 308">
          <path id="Path_268" data-name="Path 268" class="cls-1" d="M301.106,238.239h-.463a7.659,7.659,0,0,0-1.008.067,1.015,1.015,0,1,0,.268,2.013,5.646,5.646,0,0,1,.741-.049h.463a1.015,1.015,0,0,0,0-2.03Z" transform="translate(-298.753 -238.239)"/>
        </g>
      </g>
      <g id="Group_311" data-name="Group 311" transform="translate(47.074 62.667)">
        <g id="Group_310" data-name="Group 310">
          <path id="Path_269" data-name="Path 269" class="cls-1" d="M276.267,463.5h0l-1.341.006a1.015,1.015,0,0,0,0,2.03h0l1.341-.006a1.015,1.015,0,0,0,0-2.03Z" transform="translate(-273.911 -463.496)"/>
        </g>
      </g>
      <g id="Group_313" data-name="Group 313" transform="translate(51.634 45.36)">
        <g id="Group_312" data-name="Group 312">
          <path id="Path_270" data-name="Path 270" class="cls-1" d="M310,335.489h-1.341a1.015,1.015,0,1,0,0,2.03H310a1.015,1.015,0,0,0,0-2.03Z" transform="translate(-307.642 -335.489)"/>
        </g>
      </g>
      <g id="Group_315" data-name="Group 315" transform="translate(45.963 33.953)">
        <g id="Group_314" data-name="Group 314">
          <path id="Path_271" data-name="Path 271" class="cls-1" d="M268.346,251.447a1.015,1.015,0,0,0-1.434-.058,7.63,7.63,0,0,0-1.023,1.156,1.015,1.015,0,1,0,1.649,1.184,5.61,5.61,0,0,1,.751-.848A1.015,1.015,0,0,0,268.346,251.447Z" transform="translate(-265.698 -251.12)"/>
        </g>
      </g>
      <g id="Group_317" data-name="Group 317" transform="translate(52.437 62.643)">
        <g id="Group_316" data-name="Group 316">
          <path id="Path_272" data-name="Path 272" class="cls-1" d="M315.934,463.314h0l-1.341.006a1.015,1.015,0,0,0,0,2.03h0l1.341-.006a1.015,1.015,0,0,0,0-2.03Z" transform="translate(-313.578 -463.314)"/>
        </g>
      </g>
      <g id="Group_319" data-name="Group 319" transform="translate(41.711 62.692)">
        <g id="Group_318" data-name="Group 318">
          <path id="Path_273" data-name="Path 273" class="cls-1" d="M236.6,463.675h0l-1.341.006a1.015,1.015,0,0,0,0,2.03h0l1.341-.006a1.015,1.015,0,0,0,0-2.03Z" transform="translate(-234.246 -463.675)"/>
        </g>
      </g>
      <g id="Group_321" data-name="Group 321" transform="translate(46.751 43.525)">
        <g id="Group_320" data-name="Group 320">
          <path id="Path_274" data-name="Path 274" class="cls-1" d="M274.133,322.9a5.6,5.6,0,0,1-.891-.7,1.015,1.015,0,0,0-1.408,1.463,7.631,7.631,0,0,0,1.216.952,1.015,1.015,0,1,0,1.083-1.717Z" transform="translate(-271.523 -321.919)"/>
        </g>
      </g>
      <g id="Group_323" data-name="Group 323" transform="translate(44.733 38.718)">
        <g id="Group_322" data-name="Group 322">
          <path id="Path_275" data-name="Path 275" class="cls-1" d="M258.73,288.514a5.61,5.61,0,0,1-.1-1.07v-.056a1.015,1.015,0,0,0-1-1.027h-.012a1.015,1.015,0,0,0-1.015,1v.08a7.643,7.643,0,0,0,.14,1.458,1.015,1.015,0,0,0,1.993-.388Z" transform="translate(-256.597 -286.361)"/>
        </g>
      </g>
      <g id="Group_325" data-name="Group 325" transform="translate(56.997 45.36)">
        <g id="Group_324" data-name="Group 324">
          <path id="Path_276" data-name="Path 276" class="cls-1" d="M349.665,335.489h-1.341a1.015,1.015,0,0,0,0,2.03h1.341a1.015,1.015,0,1,0,0-2.03Z" transform="translate(-347.309 -335.489)"/>
        </g>
      </g>
      <g id="Group_327" data-name="Group 327" transform="translate(72.895 46.463)">
        <g id="Group_326" data-name="Group 326">
          <path id="Path_277" data-name="Path 277" class="cls-1" d="M467.644,344.609a9.666,9.666,0,0,0-1.243-.833,1.015,1.015,0,1,0-1,1.769,7.652,7.652,0,0,1,.981.658,1.015,1.015,0,0,0,1.258-1.594Z" transform="translate(-464.888 -343.645)"/>
        </g>
      </g>
      <g id="Group_329" data-name="Group 329" transform="translate(68.526 62.494)">
        <g id="Group_328" data-name="Group 328">
          <path id="Path_278" data-name="Path 278" class="cls-1" d="M435.932,463.088a1.016,1.016,0,0,0-1.145-.867,7.639,7.639,0,0,1-1.012.072h-.19a1.015,1.015,0,0,0,0,2.03h.195a9.69,9.69,0,0,0,1.281-.091A1.015,1.015,0,0,0,435.932,463.088Z" transform="translate(-432.575 -462.211)"/>
        </g>
      </g>
      <g id="Group_331" data-name="Group 331" transform="translate(73.575 60.2)">
        <g id="Group_330" data-name="Group 330">
          <path id="Path_279" data-name="Path 279" class="cls-1" d="M472.706,445.565a1.015,1.015,0,0,0-1.435-.035,7.662,7.662,0,0,1-.916.747,1.015,1.015,0,1,0,1.157,1.669,9.719,9.719,0,0,0,1.16-.945A1.015,1.015,0,0,0,472.706,445.565Z" transform="translate(-469.918 -445.25)"/>
        </g>
      </g>
      <g id="Group_333" data-name="Group 333" transform="translate(76.786 55.568)">
        <g id="Group_332" data-name="Group 332">
          <path id="Path_280" data-name="Path 280" class="cls-1" d="M495.22,411a1.015,1.015,0,0,0-1.185.81,7.6,7.6,0,0,1-.308,1.14,1.015,1.015,0,1,0,1.912.682,9.618,9.618,0,0,0,.391-1.446A1.015,1.015,0,0,0,495.22,411Z" transform="translate(-493.667 -410.987)"/>
        </g>
      </g>
      <g id="Group_335" data-name="Group 335" transform="translate(76.481 50.332)">
        <g id="Group_334" data-name="Group 334">
          <path id="Path_281" data-name="Path 281" class="cls-1" d="M493.873,374.255a9.579,9.579,0,0,0-.525-1.4,1.015,1.015,0,1,0-1.84.858,7.543,7.543,0,0,1,.414,1.106,1.015,1.015,0,1,0,1.951-.56Z" transform="translate(-491.412 -372.265)"/>
        </g>
      </g>
      <g id="Group_337" data-name="Group 337" transform="translate(62.36 45.36)">
        <g id="Group_336" data-name="Group 336">
          <path id="Path_282" data-name="Path 282" class="cls-1" d="M389.331,335.489H387.99a1.015,1.015,0,0,0,0,2.03h1.341a1.015,1.015,0,0,0,0-2.03Z" transform="translate(-386.975 -335.489)"/>
        </g>
      </g>
      <g id="Group_339" data-name="Group 339" transform="translate(57.8 62.618)">
        <g id="Group_338" data-name="Group 338">
          <path id="Path_283" data-name="Path 283" class="cls-1" d="M355.6,463.134h0l-1.341.006a1.015,1.015,0,0,0,0,2.03h0l1.341-.006a1.015,1.015,0,0,0,0-2.03Z" transform="translate(-353.243 -463.134)"/>
        </g>
      </g>
      <g id="Group_341" data-name="Group 341" transform="translate(67.723 45.36)">
        <g id="Group_340" data-name="Group 340">
          <path id="Path_284" data-name="Path 284" class="cls-1" d="M429.041,335.5c-.144-.006-.289-.01-.432-.01h-.953a1.015,1.015,0,1,0,0,2.03h.953q.172,0,.342.008H429a1.015,1.015,0,0,0,.044-2.029Z" transform="translate(-426.64 -335.49)"/>
        </g>
      </g>
      <g id="Group_343" data-name="Group 343" transform="translate(63.163 62.594)">
        <g id="Group_342" data-name="Group 342">
          <path id="Path_285" data-name="Path 285" class="cls-1" d="M395.264,462.955h0l-1.341.006a1.015,1.015,0,0,0,0,2.03h0l1.341-.006a1.015,1.015,0,0,0,0-2.03Z" transform="translate(-392.908 -462.955)"/>
        </g>
      </g>
    </g>
  </g>
</svg>
