<svg xmlns="http://www.w3.org/2000/svg" viewBox="1423 4171.333 78.354 70.667">
  <defs>
    <style>
      .cls-1 {
        fill: #009ae9;
      }

      .cls-2 {
        fill: #fff;
      }
    </style>
  </defs>
  <g id="Group_347" data-name="Group 347" transform="translate(-2 -2)">
    <g id="taxi_1_" data-name="taxi (1)" transform="translate(1425 4182.474)">
      <g id="Group_287" data-name="Group 287" transform="translate(51.886 22.437)">
        <g id="Group_286" data-name="Group 286">
          <path id="Path_257" data-name="Path 257" class="cls-1" d="M343.164,201.593h-2.8a1.315,1.315,0,1,0,0,2.629h2.8a1.315,1.315,0,0,0,0-2.629Z" transform="translate(-339.045 -201.593)"/>
        </g>
      </g>
      <g id="Group_289" data-name="Group 289" transform="translate(21.427 32.253)">
        <g id="Group_288" data-name="Group 288">
          <path id="Path_258" data-name="Path 258" class="cls-1" d="M174.937,266.781a2.7,2.7,0,0,0-2.142-1.045H142.732a2.717,2.717,0,0,0-2.636,3.376l.7,2.8a2.713,2.713,0,0,0,2.636,2.058h28.661a2.713,2.713,0,0,0,2.636-2.058l.7-2.8A2.7,2.7,0,0,0,174.937,266.781Zm-2.056,1.694-.7,2.8a.087.087,0,0,1-.085.066H143.433a.088.088,0,0,1-.085-.066l-.7-2.8a.088.088,0,0,1,.085-.109H172.8a.088.088,0,0,1,.085.109Z" transform="translate(-140.014 -265.736)"/>
        </g>
      </g>
      <g id="Group_291" data-name="Group 291" transform="translate(0 0)">
        <g id="Group_290" data-name="Group 290">
          <path id="Path_259" data-name="Path 259" class="cls-1" d="M74.235,80.047a4.119,4.119,0,0,0,0-8.238h-1.4a4.126,4.126,0,0,0-4.067,3.463l-3.507-9.645a5.538,5.538,0,0,0-5.189-3.635h-10l-.74-3.7a4.13,4.13,0,0,0-4.039-3.312H33.062a4.13,4.13,0,0,0-4.039,3.312l-.74,3.7h-10A5.538,5.538,0,0,0,13.1,65.627L9.588,75.272a4.126,4.126,0,0,0-4.066-3.463h-1.4a4.119,4.119,0,1,0,0,8.238h1.4a4.094,4.094,0,0,0,1.806-.418L4.322,83.386A6.948,6.948,0,0,0,2.8,87.712V113.79a2.72,2.72,0,0,0,2.717,2.717H9.728a2.72,2.72,0,0,0,2.717-2.717v-5.7H65.908v5.7a2.72,2.72,0,0,0,2.717,2.717h4.207a2.72,2.72,0,0,0,2.717-2.717V87.712a6.948,6.948,0,0,0-1.517-4.325l-3.006-3.757a4.094,4.094,0,0,0,1.806.418ZM5.522,77.418h-1.4a1.49,1.49,0,0,1,0-2.98h1.4a1.49,1.49,0,0,1,0,2.98ZM31.6,58.808a1.494,1.494,0,0,1,1.461-1.2H45.292a1.494,1.494,0,0,1,1.461,1.2l.637,3.185H30.964ZM9.816,113.79a.088.088,0,0,1-.088.088H5.522a.088.088,0,0,1-.088-.088v-6.517a5.488,5.488,0,0,0,2.892.821h1.49v5.7Zm44.874-8.326H23.664v-2.892a.088.088,0,0,1,.088-.088H54.6a.088.088,0,0,1,.088.088v2.892Zm18.23,8.326a.088.088,0,0,1-.088.088H68.625a.088.088,0,0,1-.088-.088v-5.7h1.49a5.488,5.488,0,0,0,2.892-.821v6.517Zm-.941-28.761a4.312,4.312,0,0,1,.941,2.683v14.86a2.9,2.9,0,0,1-2.892,2.892H57.319v-2.892A2.72,2.72,0,0,0,54.6,99.855H23.752a2.72,2.72,0,0,0-2.717,2.717v2.892H8.326a2.9,2.9,0,0,1-2.892-2.892V87.712a4.31,4.31,0,0,1,.941-2.683l3.985-4.982H47.591a1.315,1.315,0,0,0,0-2.629H11.606l3.961-10.892a2.9,2.9,0,0,1,2.718-1.9H60.07a2.9,2.9,0,0,1,2.718,1.9l3.961,10.892H61.614a1.315,1.315,0,1,0,0,2.629h6.38Zm-.637-9.1a1.492,1.492,0,0,1,1.49-1.49h1.4a1.49,1.49,0,1,1,0,2.98h-1.4A1.492,1.492,0,0,1,71.342,75.928Z" transform="translate(0 -54.981)"/>
        </g>
      </g>
      <g id="Group_293" data-name="Group 293" transform="translate(11.218 42.069)">
        <g id="Group_292" data-name="Group 292">
          <path id="Path_260" data-name="Path 260" class="cls-1" d="M76.023,329.879A2.717,2.717,0,1,0,78.74,332.6,2.72,2.72,0,0,0,76.023,329.879Z" transform="translate(-73.306 -329.879)"/>
        </g>
      </g>
      <g id="Group_295" data-name="Group 295" transform="translate(61.702 42.069)">
        <g id="Group_294" data-name="Group 294">
          <path id="Path_261" data-name="Path 261" class="cls-1" d="M405.9,329.879a2.717,2.717,0,1,0,2.717,2.717A2.72,2.72,0,0,0,405.9,329.879Z" transform="translate(-403.186 -329.879)"/>
        </g>
      </g>
      <g id="Group_297" data-name="Group 297" transform="translate(8.414 30.851)">
        <g id="Group_296" data-name="Group 296">
          <path id="Path_262" data-name="Path 262" class="cls-1" d="M59.8,256.573a4.82,4.82,0,1,0,4.82,4.82A4.826,4.826,0,0,0,59.8,256.573Zm0,7.011a2.191,2.191,0,1,1,2.191-2.191A2.194,2.194,0,0,1,59.8,263.585Z" transform="translate(-54.98 -256.573)"/>
        </g>
      </g>
      <g id="Group_299" data-name="Group 299" transform="translate(60.299 30.851)">
        <g id="Group_298" data-name="Group 298">
          <path id="Path_263" data-name="Path 263" class="cls-1" d="M398.842,256.573a4.82,4.82,0,1,0,4.82,4.82A4.826,4.826,0,0,0,398.842,256.573Zm0,7.011a2.191,2.191,0,1,1,2.191-2.191A2.194,2.194,0,0,1,398.842,263.585Z" transform="translate(-394.022 -256.573)"/>
        </g>
      </g>
    </g>
    <g id="Group_346" data-name="Group 346" transform="translate(1450.422 4173.333)">
      <circle id="Ellipse_61" data-name="Ellipse 61" class="cls-2" cx="13.059" cy="13.059" r="13.059" transform="translate(0.696 0.696)"/>
      <g id="round-delete-button">
        <g id="Group_345" data-name="Group 345">
          <path id="Path_302" data-name="Path 302" class="cls-1" d="M13.581,0A13.581,13.581,0,1,0,27.163,13.581,13.6,13.6,0,0,0,13.581,0Zm0,25.381a11.8,11.8,0,1,1,11.8-11.8A11.813,11.813,0,0,1,13.581,25.381Z"/>
          <path id="Path_303" data-name="Path 303" class="cls-1" d="M139.83,130.948a.89.89,0,0,0-1.259,0l-3.187,3.187-3.187-3.187a.891.891,0,0,0-1.259,1.259l3.186,3.187-3.187,3.187a.891.891,0,1,0,1.259,1.259l3.187-3.187,3.187,3.187a.89.89,0,0,0,1.259-1.259l-3.187-3.187,3.187-3.187A.89.89,0,0,0,139.83,130.948Z" transform="translate(-121.803 -121.812)"/>
        </g>
      </g>
    </g>
  </g>
</svg>
