<svg xmlns="http://www.w3.org/2000/svg" viewBox="1089.7 3591.7 76.1 69.808">
  <defs>
    <style>
      .cls-1, .cls-2 {
        fill: #009ae9;
      }

      .cls-1 {
        stroke: #fff;
        stroke-width: 0.6px;
      }

      .cls-2 {
        stroke: #009ae9;
        stroke-width: 0.8px;
      }
    </style>
  </defs>
  <g id="Group_209" data-name="Group 209" transform="translate(0 4)">
    <g id="survey" transform="translate(1090 3566.667)">
      <g id="Group_208" data-name="Group 208" transform="translate(0 21.333)">
        <g id="Group_207" data-name="Group 207">
          <circle id="Ellipse_44" data-name="Ellipse 44" class="cls-1" cx="1.573" cy="1.573" r="1.573" transform="translate(6.292 6.292)"/>
          <circle id="Ellipse_45" data-name="Ellipse 45" class="cls-1" cx="1.573" cy="1.573" r="1.573" transform="translate(12.583 6.292)"/>
          <circle id="Ellipse_46" data-name="Ellipse 46" class="cls-1" cx="1.573" cy="1.573" r="1.573" transform="translate(18.875 6.292)"/>
          <path id="Path_220" data-name="Path 220" class="cls-1" d="M127.114,341.333H108.239a1.573,1.573,0,1,0,0,3.146h18.875a1.573,1.573,0,1,0,0-3.146Z" transform="translate(-90.937 -294.146)"/>
          <path id="Path_221" data-name="Path 221" class="cls-1" d="M69.479,40.208c-.091,0-.179.023-.27.027V27.625a6.3,6.3,0,0,0-6.292-6.292H6.292A6.3,6.3,0,0,0,0,27.625V84.25a6.3,6.3,0,0,0,6.292,6.292H62.917a6.3,6.3,0,0,0,6.292-6.292V55.015l4.528-4.527h0a6.021,6.021,0,0,0-4.258-10.278ZM3.146,27.625a3.149,3.149,0,0,1,3.146-3.146H62.917a3.149,3.149,0,0,1,3.146,3.146v6.292H3.146ZM66.063,84.25A3.149,3.149,0,0,1,62.917,87.4H6.292A3.149,3.149,0,0,1,3.146,84.25V37.062H66.063v4.22a5.917,5.917,0,0,0-.842.689L48.106,59.083H17.3a1.573,1.573,0,1,0,0,3.146H45.583l-1.51,7.556a1.573,1.573,0,0,0,1.542,1.882,1.606,1.606,0,0,0,.307-.031l7.862-1.573a1.563,1.563,0,0,0,.8-.43L66.063,58.16ZM52.7,67.072l-5.081,1.017L48.638,63,62.916,48.723l4.068,4.068Zm18.81-18.809-2.3,2.3L65.14,46.5l2.3-2.3a2.877,2.877,0,0,1,4.068,4.069Z" transform="translate(0 -21.333)"/>
        </g>
      </g>
    </g>
    <g id="star_5_" data-name="star (5)" transform="translate(1099 3608.746)">
      <path id="Path_222" data-name="Path 222" class="cls-2" d="M11.212,15.062a.313.313,0,0,0-.251-.212l-3.5-.5L5.882,11.184a.312.312,0,0,0-.279-.173h0a.31.31,0,0,0-.279.175L3.769,14.364l-3.5.521a.313.313,0,0,0-.251.212.308.308,0,0,0,.081.318l2.542,2.463L2.05,21.367a.313.313,0,0,0,.306.364.3.3,0,0,0,.145-.037l3.127-1.657,3.136,1.638a.318.318,0,0,0,.143.035h0a.313.313,0,0,0,.311-.311.243.243,0,0,0-.009-.071L8.6,17.86l2.526-2.477A.3.3,0,0,0,11.212,15.062ZM8.055,17.53a.308.308,0,0,0-.088.277L8.5,20.832,5.772,19.411a.315.315,0,0,0-.29,0L2.767,20.849l.509-3.03a.311.311,0,0,0-.09-.274l-2.2-2.139,3.04-.452a.309.309,0,0,0,.233-.171l1.35-2.758,1.369,2.751a.317.317,0,0,0,.235.171l3.042.433Z" transform="translate(0 -11.011)"/>
    </g>
    <g id="star_5_2" data-name="star (5)" transform="translate(1114.386 3608.746)">
      <path id="Path_222-2" data-name="Path 222" class="cls-2" d="M11.212,15.062a.313.313,0,0,0-.251-.212l-3.5-.5L5.882,11.184a.312.312,0,0,0-.279-.173h0a.31.31,0,0,0-.279.175L3.769,14.364l-3.5.521a.313.313,0,0,0-.251.212.308.308,0,0,0,.081.318l2.542,2.463L2.05,21.367a.313.313,0,0,0,.306.364.3.3,0,0,0,.145-.037l3.127-1.657,3.136,1.638a.318.318,0,0,0,.143.035h0a.313.313,0,0,0,.311-.311.243.243,0,0,0-.009-.071L8.6,17.86l2.526-2.477A.3.3,0,0,0,11.212,15.062ZM8.055,17.53a.308.308,0,0,0-.088.277L8.5,20.832,5.772,19.411a.315.315,0,0,0-.29,0L2.767,20.849l.509-3.03a.311.311,0,0,0-.09-.274l-2.2-2.139,3.04-.452a.309.309,0,0,0,.233-.171l1.35-2.758,1.369,2.751a.317.317,0,0,0,.235.171l3.042.433Z" transform="translate(0 -11.011)"/>
    </g>
    <g id="star_5_3" data-name="star (5)" transform="translate(1129.772 3608.746)">
      <path id="Path_222-3" data-name="Path 222" class="cls-2" d="M11.212,15.062a.313.313,0,0,0-.251-.212l-3.5-.5L5.882,11.184a.312.312,0,0,0-.279-.173h0a.31.31,0,0,0-.279.175L3.769,14.364l-3.5.521a.313.313,0,0,0-.251.212.308.308,0,0,0,.081.318l2.542,2.463L2.05,21.367a.313.313,0,0,0,.306.364.3.3,0,0,0,.145-.037l3.127-1.657,3.136,1.638a.318.318,0,0,0,.143.035h0a.313.313,0,0,0,.311-.311.243.243,0,0,0-.009-.071L8.6,17.86l2.526-2.477A.3.3,0,0,0,11.212,15.062ZM8.055,17.53a.308.308,0,0,0-.088.277L8.5,20.832,5.772,19.411a.315.315,0,0,0-.29,0L2.767,20.849l.509-3.03a.311.311,0,0,0-.09-.274l-2.2-2.139,3.04-.452a.309.309,0,0,0,.233-.171l1.35-2.758,1.369,2.751a.317.317,0,0,0,.235.171l3.042.433Z" transform="translate(0 -11.011)"/>
    </g>
  </g>
</svg>
