<svg xmlns="http://www.w3.org/2000/svg" viewBox="1432 3591 61.1 71.708">
  <defs>
    <style>
      .cls-1, .cls-2 {
        fill: #009ae9;
      }

      .cls-1 {
        stroke: #fff;
        stroke-width: 0.2px;
      }
    </style>
  </defs>
  <g id="Group_238" data-name="Group 238" transform="translate(-219 99)">
    <g id="invoice_2_" data-name="invoice (2)" transform="translate(1651 3492)">
      <g id="Group_211" data-name="Group 211" transform="translate(37.131 47.739)">
        <g id="Group_210" data-name="Group 210">
          <path id="Path_223" data-name="Path 223" class="cls-1" d="M315.343,341.333a11.935,11.935,0,1,0,11.935,11.935A11.948,11.948,0,0,0,315.343,341.333Zm0,21.217a9.283,9.283,0,1,1,9.283-9.283A9.293,9.293,0,0,1,315.343,362.55Z" transform="translate(-303.408 -341.333)"/>
        </g>
      </g>
      <g id="Group_215" data-name="Group 215" transform="translate(0)">
        <g id="Group_214" data-name="Group 214" transform="translate(0)">
          <path id="Path_225" data-name="Path 225" class="cls-2" d="M86.99,0H39.251a1.326,1.326,0,0,0-1.326,1.326v66.3a1.326,1.326,0,0,0,2.008,1.137L45.8,65.248l4.591,3.443a1.325,1.325,0,0,0,1.478.076l5.866-3.519,4.591,3.443a1.326,1.326,0,0,0,1.478.076l6.63-3.978a1.326,1.326,0,1,0-1.364-2.274L63.2,66.035l-4.591-3.443a1.325,1.325,0,0,0-1.478-.076l-5.866,3.519-4.591-3.443a1.325,1.325,0,0,0-1.478-.076l-4.622,2.773V2.652H85.664V43.761a1.326,1.326,0,0,0,2.652,0V1.326A1.326,1.326,0,0,0,86.99,0Z" transform="translate(-37.925 0)"/>
        </g>
      </g>
      <g id="Group_217" data-name="Group 217" transform="translate(6.631 11.935)">
        <g id="Group_216" data-name="Group 216" transform="translate(0)">
          <path id="Path_226" data-name="Path 226" class="cls-1" d="M93.29,85.333h-6.63a1.326,1.326,0,0,0,0,2.652h6.63a1.326,1.326,0,0,0,0-2.652Z" transform="translate(-85.333 -85.333)"/>
        </g>
      </g>
      <g id="Group_219" data-name="Group 219" transform="translate(31.826 18.565)">
        <g id="Group_218" data-name="Group 218" transform="translate(0)">
          <path id="Path_227" data-name="Path 227" class="cls-1" d="M273.438,132.741h-6.63a1.326,1.326,0,0,0,0,2.652h6.63a1.326,1.326,0,1,0,0-2.652Z" transform="translate(-265.482 -132.741)"/>
        </g>
      </g>
      <g id="Group_221" data-name="Group 221" transform="translate(31.826 25.196)">
        <g id="Group_220" data-name="Group 220" transform="translate(0)">
          <path id="Path_228" data-name="Path 228" class="cls-1" d="M273.438,180.148h-6.63a1.326,1.326,0,0,0,0,2.652h6.63a1.326,1.326,0,1,0,0-2.652Z" transform="translate(-265.482 -180.148)"/>
        </g>
      </g>
      <g id="Group_223" data-name="Group 223" transform="translate(31.826 31.826)">
        <g id="Group_222" data-name="Group 222" transform="translate(0)">
          <path id="Path_229" data-name="Path 229" class="cls-1" d="M273.438,227.556h-6.63a1.326,1.326,0,0,0,0,2.652h6.63a1.326,1.326,0,1,0,0-2.652Z" transform="translate(-265.482 -227.556)"/>
        </g>
      </g>
      <g id="Group_225" data-name="Group 225" transform="translate(31.826 38.456)">
        <g id="Group_224" data-name="Group 224" transform="translate(0)">
          <path id="Path_230" data-name="Path 230" class="cls-1" d="M273.438,274.963h-6.63a1.326,1.326,0,0,0,0,2.652h6.63a1.326,1.326,0,1,0,0-2.652Z" transform="translate(-265.482 -274.963)"/>
        </g>
      </g>
      <g id="Group_227" data-name="Group 227" transform="translate(31.826 45.087)">
        <g id="Group_226" data-name="Group 226" transform="translate(0)">
          <path id="Path_231" data-name="Path 231" class="cls-1" d="M273.438,322.37h-6.63a1.326,1.326,0,0,0,0,2.652h6.63a1.326,1.326,0,1,0,0-2.652Z" transform="translate(-265.482 -322.37)"/>
        </g>
      </g>
      <g id="Group_229" data-name="Group 229" transform="translate(6.631 18.565)">
        <g id="Group_228" data-name="Group 228" transform="translate(0)">
          <path id="Path_232" data-name="Path 232" class="cls-1" d="M105.224,132.741H86.659a1.326,1.326,0,1,0,0,2.652h18.565a1.326,1.326,0,1,0,0-2.652Z" transform="translate(-85.333 -132.741)"/>
        </g>
      </g>
      <g id="Group_231" data-name="Group 231" transform="translate(6.631 25.196)">
        <g id="Group_230" data-name="Group 230" transform="translate(0)">
          <path id="Path_233" data-name="Path 233" class="cls-1" d="M105.224,180.148H86.659a1.326,1.326,0,1,0,0,2.652h18.565a1.326,1.326,0,1,0,0-2.652Z" transform="translate(-85.333 -180.148)"/>
        </g>
      </g>
      <g id="Group_233" data-name="Group 233" transform="translate(6.631 31.826)">
        <g id="Group_232" data-name="Group 232" transform="translate(0)">
          <path id="Path_234" data-name="Path 234" class="cls-1" d="M105.224,227.556H86.659a1.326,1.326,0,1,0,0,2.652h18.565a1.326,1.326,0,1,0,0-2.652Z" transform="translate(-85.333 -227.556)"/>
        </g>
      </g>
      <g id="Group_235" data-name="Group 235" transform="translate(6.631 38.456)">
        <g id="Group_234" data-name="Group 234" transform="translate(0)">
          <path id="Path_235" data-name="Path 235" class="cls-1" d="M105.224,274.963H86.659a1.326,1.326,0,1,0,0,2.652h18.565a1.326,1.326,0,1,0,0-2.652Z" transform="translate(-85.333 -274.963)"/>
        </g>
      </g>
      <g id="Group_237" data-name="Group 237" transform="translate(6.631 45.087)">
        <g id="Group_236" data-name="Group 236" transform="translate(0)">
          <path id="Path_236" data-name="Path 236" class="cls-1" d="M105.224,322.37H86.659a1.326,1.326,0,1,0,0,2.652h18.565a1.326,1.326,0,1,0,0-2.652Z" transform="translate(-85.333 -322.37)"/>
        </g>
      </g>
    </g>
    <g id="dollar-symbol" transform="translate(1696.176 3544.833)">
      <path id="Path_237" data-name="Path 237" class="cls-2" d="M129.707,8.416a2.788,2.788,0,0,0-.243-.59,2,2,0,0,0-.409-.49,4.88,4.88,0,0,0-.478-.386,4.663,4.663,0,0,0-.582-.328q-.37-.181-.586-.27t-.625-.243q-.363-.139-.54-.212t-.467-.208a2.72,2.72,0,0,1-.432-.239,3.393,3.393,0,0,1-.3-.254.868.868,0,0,1-.228-.32,1.037,1.037,0,0,1,.4-1.226,2.006,2.006,0,0,1,1.2-.332,2.571,2.571,0,0,1,.66.089,3.449,3.449,0,0,1,.575.2,3.991,3.991,0,0,1,.451.247q.212.135.3.2c.059.046.1.077.112.093a.246.246,0,0,0,.208.054.211.211,0,0,0,.178-.123l.625-1.126a.223.223,0,0,0-.039-.293c-.031-.031-.069-.067-.116-.108s-.146-.116-.3-.224a3.725,3.725,0,0,0-.49-.289,4.954,4.954,0,0,0-.671-.258,4.279,4.279,0,0,0-.852-.177V.247A.237.237,0,0,0,126.8,0h-1.041a.237.237,0,0,0-.174.073.237.237,0,0,0-.073.174V1.635a3.529,3.529,0,0,0-1.967,1.034,2.638,2.638,0,0,0-.756,1.867,2.679,2.679,0,0,0,.066.6,3.081,3.081,0,0,0,.162.513,1.888,1.888,0,0,0,.274.447,4.794,4.794,0,0,0,.336.378,2.725,2.725,0,0,0,.413.328q.255.17.436.274t.482.239q.3.135.474.2l.474.193q.416.162.617.251t.509.247a2.113,2.113,0,0,1,.451.289,1.45,1.45,0,0,1,.258.324.782.782,0,0,1,.116.409,1.08,1.08,0,0,1-.474.941,1.87,1.87,0,0,1-1.1.332,2.7,2.7,0,0,1-.571-.062,4.03,4.03,0,0,1-1.874-.964l-.015-.015a.191.191,0,0,0-.185-.069.24.24,0,0,0-.177.093l-.795,1.041a.234.234,0,0,0,.015.316q.039.046.135.139a4.466,4.466,0,0,0,.359.289,4.734,4.734,0,0,0,1.354.714,4.87,4.87,0,0,0,.984.239v1.35a.25.25,0,0,0,.247.247H126.8a.237.237,0,0,0,.247-.247v-1.35a3.312,3.312,0,0,0,1.994-1.053,2.935,2.935,0,0,0,.768-2.033A2.536,2.536,0,0,0,129.707,8.416Z" transform="translate(-122.611)"/>
    </g>
  </g>
</svg>
