<svg xmlns="http://www.w3.org/2000/svg" viewBox="412.6 3884.898 90.3 68.002">
  <defs>
    <style>
      .cls-1 {
        fill: #009ae9;
        stroke: #fff;
        stroke-width: 0.8px;
      }
    </style>
  </defs>
  <g id="calendar_4_" data-name="calendar (4)" transform="translate(413 3821.519)">
    <g id="Group_240" data-name="Group 240" transform="translate(70.233 85.322)">
      <g id="Group_239" data-name="Group 239" transform="translate(0 0)">
        <circle id="Ellipse_47" data-name="Ellipse 47" class="cls-1" cx="2.151" cy="2.151" r="2.151"/>
      </g>
    </g>
    <g id="Group_242" data-name="Group 242" transform="translate(56.416 85.322)">
      <g id="Group_241" data-name="Group 241" transform="translate(0 0)">
        <circle id="Ellipse_48" data-name="Ellipse 48" class="cls-1" cx="2.151" cy="2.151" r="2.151"/>
      </g>
    </g>
    <g id="Group_244" data-name="Group 244" transform="translate(42.599 85.322)">
      <g id="Group_243" data-name="Group 243" transform="translate(0 0)">
        <circle id="Ellipse_49" data-name="Ellipse 49" class="cls-1" cx="2.151" cy="2.151" r="2.151"/>
      </g>
    </g>
    <g id="Group_246" data-name="Group 246" transform="translate(28.781 85.322)">
      <g id="Group_245" data-name="Group 245" transform="translate(0 0)">
        <circle id="Ellipse_50" data-name="Ellipse 50" class="cls-1" cx="2.151" cy="2.151" r="2.151"/>
      </g>
    </g>
    <g id="Group_248" data-name="Group 248" transform="translate(14.964 85.322)">
      <g id="Group_247" data-name="Group 247" transform="translate(0 0)">
        <circle id="Ellipse_51" data-name="Ellipse 51" class="cls-1" cx="2.151" cy="2.151" r="2.151"/>
      </g>
    </g>
    <g id="Group_250" data-name="Group 250" transform="translate(70.233 99.139)">
      <g id="Group_249" data-name="Group 249">
        <circle id="Ellipse_52" data-name="Ellipse 52" class="cls-1" cx="2.151" cy="2.151" r="2.151"/>
      </g>
    </g>
    <g id="Group_252" data-name="Group 252" transform="translate(56.416 99.139)">
      <g id="Group_251" data-name="Group 251">
        <circle id="Ellipse_53" data-name="Ellipse 53" class="cls-1" cx="2.151" cy="2.151" r="2.151"/>
      </g>
    </g>
    <g id="Group_254" data-name="Group 254" transform="translate(42.599 99.139)">
      <g id="Group_253" data-name="Group 253">
        <circle id="Ellipse_54" data-name="Ellipse 54" class="cls-1" cx="2.151" cy="2.151" r="2.151"/>
      </g>
    </g>
    <g id="Group_256" data-name="Group 256" transform="translate(14.964 99.139)">
      <g id="Group_255" data-name="Group 255">
        <circle id="Ellipse_55" data-name="Ellipse 55" class="cls-1" cx="2.151" cy="2.151" r="2.151"/>
      </g>
    </g>
    <g id="Group_258" data-name="Group 258" transform="translate(70.233 112.957)">
      <g id="Group_257" data-name="Group 257" transform="translate(0 0)">
        <circle id="Ellipse_56" data-name="Ellipse 56" class="cls-1" cx="2.151" cy="2.151" r="2.151"/>
      </g>
    </g>
    <g id="Group_260" data-name="Group 260" transform="translate(56.416 112.957)">
      <g id="Group_259" data-name="Group 259" transform="translate(0 0)">
        <circle id="Ellipse_57" data-name="Ellipse 57" class="cls-1" cx="2.151" cy="2.151" r="2.151"/>
      </g>
    </g>
    <g id="Group_262" data-name="Group 262" transform="translate(42.599 112.957)">
      <g id="Group_261" data-name="Group 261" transform="translate(0 0)">
        <circle id="Ellipse_58" data-name="Ellipse 58" class="cls-1" cx="2.151" cy="2.151" r="2.151"/>
      </g>
    </g>
    <g id="Group_264" data-name="Group 264" transform="translate(28.781 112.957)">
      <g id="Group_263" data-name="Group 263" transform="translate(0 0)">
        <circle id="Ellipse_59" data-name="Ellipse 59" class="cls-1" cx="2.151" cy="2.151" r="2.151"/>
      </g>
    </g>
    <g id="Group_266" data-name="Group 266" transform="translate(14.964 112.957)">
      <g id="Group_265" data-name="Group 265" transform="translate(0 0)">
        <circle id="Ellipse_60" data-name="Ellipse 60" class="cls-1" cx="2.151" cy="2.151" r="2.151"/>
      </g>
    </g>
    <g id="Group_268" data-name="Group 268" transform="translate(22.59 92.949)">
      <g id="Group_267" data-name="Group 267" transform="translate(0 0)">
        <path id="Path_238" data-name="Path 238" class="cls-1" d="M144.066,230.65H131.079a1.849,1.849,0,0,0-1.849,1.849v12.986a1.849,1.849,0,0,0,1.849,1.849h12.986a1.849,1.849,0,0,0,1.849-1.849V232.5A1.85,1.85,0,0,0,144.066,230.65Zm-1.849,12.986h-9.287v-9.287h9.287v9.287Z" transform="translate(-129.23 -230.65)"/>
      </g>
    </g>
    <g id="Group_270" data-name="Group 270" transform="translate(0 63.779)">
      <g id="Group_269" data-name="Group 269" transform="translate(0)">
        <path id="Path_239" data-name="Path 239" class="cls-1" d="M83.335,68.208H69.751V65.834a2.055,2.055,0,1,0-4.11,0v2.374H54.453V65.834a2.055,2.055,0,1,0-4.11,0v2.374H39.156V65.834a2.055,2.055,0,1,0-4.11,0v2.374H23.859V65.834a2.055,2.055,0,1,0-4.11,0v2.374H6.164A6.172,6.172,0,0,0,0,74.372v50.444a6.172,6.172,0,0,0,6.165,6.165h77.17a6.172,6.172,0,0,0,6.165-6.165V74.372A6.172,6.172,0,0,0,83.335,68.208Zm0,58.664H6.165a2.057,2.057,0,0,1-2.055-2.055V74.372a2.057,2.057,0,0,1,2.055-2.055H19.749v2.373a2.055,2.055,0,1,0,4.11,0V72.317H35.046v2.373a2.055,2.055,0,0,0,4.11,0V72.317H50.344v2.373a2.055,2.055,0,0,0,4.11,0V72.317H65.641v2.373a2.055,2.055,0,0,0,4.11,0V72.317H83.335a2.057,2.057,0,0,1,2.055,2.055v50.444h0A2.058,2.058,0,0,1,83.335,126.871Z" transform="translate(0 -63.779)"/>
      </g>
    </g>
  </g>
</svg>
