<svg xmlns="http://www.w3.org/2000/svg" viewBox="760 3883.629 65 66.689">
  <defs>
    <style>
      .cls-1 {
        fill: #009ae9;
      }
    </style>
  </defs>
  <g id="user_7_" data-name="user (7)" transform="translate(753.515 3883.629)">
    <g id="Group_272" data-name="Group 272" transform="translate(12.121 38.971)">
      <g id="Group_271" data-name="Group 271">
        <path id="Path_240" data-name="Path 240" class="cls-1" d="M63.123,299.84a1.329,1.329,0,0,0-1.822-.459,25.173,25.173,0,0,0-11.514,15.627,1.329,1.329,0,1,0,2.584.621,22.5,22.5,0,0,1,10.293-13.967A1.328,1.328,0,0,0,63.123,299.84Z" transform="translate(-49.751 -299.192)"/>
      </g>
    </g>
    <g id="Group_274" data-name="Group 274" transform="translate(29.665 35.632)">
      <g id="Group_273" data-name="Group 273">
        <path id="Path_241" data-name="Path 241" class="cls-1" d="M191.265,273.563a25.138,25.138,0,0,0-5.8.676,1.328,1.328,0,1,0,.614,2.585,22.481,22.481,0,0,1,5.185-.6,1.328,1.328,0,0,0,0-2.657Z" transform="translate(-184.445 -273.563)"/>
      </g>
    </g>
    <g id="Group_276" data-name="Group 276" transform="translate(6.485)">
      <g id="Group_275" data-name="Group 275" transform="translate(0)">
        <path id="Path_242" data-name="Path 242" class="cls-1" d="M69.841,47.007a13.268,13.268,0,0,0-11.472-6.874c-.22-.234-.442-.466-.671-.694a29.815,29.815,0,0,0-13.808-7.87,16.654,16.654,0,1,0-14.811,0A30.033,30.033,0,0,0,6.485,60.652,1.328,1.328,0,0,0,7.813,61.98H48.071a13.277,13.277,0,0,0,21.77-14.973ZM67,47.449l-6.336,6.336L57.47,50.59l6.257-6.257A10.578,10.578,0,0,1,67,47.449Zm-8.83,7.6-2.847.885.885-2.847ZM22.488,16.654a14,14,0,1,1,14,14A14.013,14.013,0,0,1,22.488,16.654ZM9.174,59.323a27.328,27.328,0,0,1,45.8-18.795,13.275,13.275,0,0,0-8.658,18.8H9.174Zm49.032,4.709a10.623,10.623,0,1,1,2.908-20.843l-6.462,6.462a1.321,1.321,0,0,0-.329.545h0l0,.011,0,.008-2.282,7.342A1.328,1.328,0,0,0,53.7,59.22l7.342-2.282.008,0,.011,0h0A1.322,1.322,0,0,0,61.6,56.6l6.648-6.649A10.626,10.626,0,0,1,58.206,64.032Z" transform="translate(-6.485)"/>
      </g>
    </g>
  </g>
</svg>
