<svg xmlns="http://www.w3.org/2000/svg" viewBox="1420 3879 85 70.026">
  <defs>
    <style>
      .cls-1 {
        fill: #009ae9;
      }
    </style>
  </defs>
  <g id="track" transform="translate(1420 3852.4)">
    <g id="Group_283" data-name="Group 283" transform="translate(0 26.6)">
      <path id="Path_248" data-name="Path 248" class="cls-1" d="M38.535,58.268a6.868,6.868,0,1,0-6.868,6.868A6.9,6.9,0,0,0,38.535,58.268Zm-11.033,0a4.166,4.166,0,1,1,4.166,4.166A4.23,4.23,0,0,1,27.5,58.268Z" transform="translate(-17.82 -44.42)"/>
      <path id="Path_249" data-name="Path 249" class="cls-1" d="M74.98,32.567a10.042,10.042,0,0,0-10.02,10.02c0,4.954,6.079,13.4,8.219,16.325L40.642,91.448A8.438,8.438,0,0,1,28.709,79.514L27.7,78.5l1.013,1.013L56.4,51.706A11.225,11.225,0,0,0,40.53,35.832L22.4,53.845c2.815-4.728,5.291-9.907,5.291-13.4a13.848,13.848,0,1,0-27.7,0c0,8.219,12.272,23.868,12.834,24.43l1.126,1.351,28.483-28.6A8.438,8.438,0,0,1,54.377,49.567L26.795,77.487h0a11.212,11.212,0,0,0,0,15.874,11.075,11.075,0,0,0,7.881,3.265,10.7,10.7,0,0,0,7.881-3.265l32.424-32.2,1.126-1.351C77.007,58.574,85,48.1,85,42.587A10.042,10.042,0,0,0,74.98,32.567ZM13.848,29.3A11.1,11.1,0,0,1,24.993,40.448c0,5.179-7.318,16.1-11.146,21.391C9.907,56.66,2.7,45.964,2.7,40.448A11.1,11.1,0,0,1,13.848,29.3ZM74.98,56.66c-2.7-3.715-7.205-10.583-7.205-14.073a7.318,7.318,0,1,1,14.636,0C82.185,45.852,77.682,52.944,74.98,56.66Z" transform="translate(0 -26.6)"/>
      <path id="Path_250" data-name="Path 250" class="cls-1" d="M253.179,65a5.179,5.179,0,1,0,5.179,5.179A5.238,5.238,0,0,0,253.179,65Zm0,7.656a2.477,2.477,0,1,1,2.477-2.477A2.576,2.576,0,0,1,253.179,72.656Z" transform="translate(-178.199 -54.192)"/>
    </g>
  </g>
</svg>
