<svg xmlns="http://www.w3.org/2000/svg" viewBox="415 4172 84.5 68.986">
  <defs>
    <style>
      .cls-1 {
        fill: #009ae9;
      }
    </style>
  </defs>
  <g id="credit-card" transform="translate(416 4125.986)">
    <g id="Group_285" data-name="Group 285" transform="translate(-1 46.014)">
      <g id="Group_284" data-name="Group 284">
        <path id="Path_251" data-name="Path 251" class="cls-1" d="M264.942,257.768h22.526a1.33,1.33,0,0,0,1.408-1.408V243.689a1.33,1.33,0,0,0-1.408-1.408H264.942a1.33,1.33,0,0,0-1.408,1.408V256.36A1.33,1.33,0,0,0,264.942,257.768ZM266.35,245.1H286.06v9.855H266.35Z" transform="translate(-219.889 -209.899)"/>
        <path id="Path_252" data-name="Path 252" class="cls-1" d="M34.542,210.963H45.805a1.408,1.408,0,1,0,0-2.816H34.542a1.408,1.408,0,1,0,0,2.816Z" transform="translate(-27.502 -181.397)"/>
        <path id="Path_253" data-name="Path 253" class="cls-1" d="M136.942,210.963h11.263a1.408,1.408,0,1,0,0-2.816H136.942a1.408,1.408,0,1,0,0,2.816Z" transform="translate(-113.008 -181.397)"/>
        <path id="Path_254" data-name="Path 254" class="cls-1" d="M34.542,245.1h18.3a1.408,1.408,0,1,0,0-2.816h-18.3a1.408,1.408,0,1,0,0,2.816Z" transform="translate(-27.502 -209.899)"/>
        <path id="Path_255" data-name="Path 255" class="cls-1" d="M183.832,242.28h-4.224a1.408,1.408,0,0,0,0,2.816h4.224a1.408,1.408,0,0,0,0-2.816Z" transform="translate(-148.634 -209.899)"/>
        <path id="Path_256" data-name="Path 256" class="cls-1" d="M82.207,60.938a5.245,5.245,0,0,0-3.8-2.112l-3.379-.409V51.646a5.648,5.648,0,0,0-5.632-5.632H4.632A5.648,5.648,0,0,0-1,51.646V96.7a5.653,5.653,0,0,0,4.034,5.4,5.479,5.479,0,0,0,4.976,5.584L73.055,115h.563a5.637,5.637,0,0,0,5.632-4.787l4.224-45.193A5.472,5.472,0,0,0,82.207,60.938ZM1.816,55.869H72.211v8.447H1.816Zm2.816-7.04H69.395a2.824,2.824,0,0,1,2.816,2.816v1.408H1.816V51.646A2.824,2.824,0,0,1,4.632,48.83ZM1.816,96.7V67.132H72.211V96.7a2.824,2.824,0,0,1-2.816,2.816H4.632A2.824,2.824,0,0,1,1.816,96.7ZM80.658,64.457l-4.224,45.193a2.84,2.84,0,0,1-3.1,2.534l-64.9-7.321A2.846,2.846,0,0,1,5.9,102.33h63.5A5.648,5.648,0,0,0,75.026,96.7V61.078l3.238.282a2.407,2.407,0,0,1,1.83.985A2.851,2.851,0,0,1,80.658,64.457Z" transform="translate(1 -46.014)"/>
      </g>
    </g>
  </g>
</svg>
