<svg xmlns="http://www.w3.org/2000/svg" viewBox="2405 3603.693 84.877 68.442">
  <defs>
    <style>
      .cls-1 {
        fill: #009ae9;
      }
    </style>
  </defs>
  <g id="friend-request" transform="translate(2405 3599.871)">
    <g id="Group_351" data-name="Group 351" transform="translate(10.535 9.349)">
      <path id="Path_304" data-name="Path 304" class="cls-1" d="M59.258,50.919H13.421A8.53,8.53,0,0,1,4.9,42.4V39.575a17.155,17.155,0,0,1,16.324-17.15l1.032-.049.628.821a17.064,17.064,0,0,0,13.438,7.135A17.081,17.081,0,0,0,49.763,23.2l.624-.819,1.03.047a17.142,17.142,0,0,1,16.358,17.15V42.4A8.525,8.525,0,0,1,59.258,50.919ZM20.44,26.438A13.225,13.225,0,0,0,8.832,39.575V42.4a4.6,4.6,0,0,0,4.591,4.591H59.258A4.6,4.6,0,0,0,63.849,42.4V39.575A13.217,13.217,0,0,0,52.211,26.436a20.787,20.787,0,0,1-15.887,7.83A20.77,20.77,0,0,1,20.44,26.438Z" transform="translate(-4.899 11.996)"/>
      <path id="Path_305" data-name="Path 305" class="cls-1" d="M28.452,47.192c-9.215,0-16.711-9.152-16.711-20.4s7.494-20.4,16.711-20.4,16.711,9.152,16.711,20.4S37.667,47.192,28.452,47.192Zm0-36.871c-7.045,0-12.778,7.389-12.778,16.47s5.733,16.468,12.778,16.468S41.23,35.87,41.23,26.791,35.5,10.321,28.452,10.321Z" transform="translate(2.972 -6.392)"/>
    </g>
    <g id="Group_352" data-name="Group 352" transform="translate(55.053 3.822)">
      <path id="Path_306" data-name="Path 306" class="cls-1" d="M47.855,37.64a1.965,1.965,0,0,1-1.965-1.965V33.2a11.366,11.366,0,0,0-9.881-11.283,21.128,21.128,0,0,1-2.279,2.318,1.966,1.966,0,0,1-2.578-2.97,17.732,17.732,0,0,0,2.421-2.591l.626-.819,1.03.047A15.292,15.292,0,0,1,49.82,33.2v2.475A1.965,1.965,0,0,1,47.855,37.64Z" transform="translate(-19.996 12.321)"/>
      <path id="Path_307" data-name="Path 307" class="cls-1" d="M37.388,34.479A1.964,1.964,0,0,1,35.768,31.4a16.766,16.766,0,0,0,2.778-9.43c0-7.84-4.927-14.219-10.98-14.219a1.965,1.965,0,1,1,0-3.931c8.223,0,14.913,8.142,14.913,18.15a20.731,20.731,0,0,1-3.466,11.655A1.979,1.979,0,0,1,37.388,34.479Z" transform="translate(-25.601 -3.822)"/>
    </g>
    <g id="Group_353" data-name="Group 353" transform="translate(0 3.822)">
      <path id="Path_308" data-name="Path 308" class="cls-1" d="M1.965,37.639A1.965,1.965,0,0,1,0,35.673V33.2A15.289,15.289,0,0,1,14.593,17.9l1.03-.047.626.819a17.623,17.623,0,0,0,2.421,2.591,1.966,1.966,0,1,1-2.578,2.97,21.518,21.518,0,0,1-2.279-2.318A11.368,11.368,0,0,0,3.931,33.2v2.475A1.964,1.964,0,0,1,1.965,37.639Z" transform="translate(0 12.322)"/>
      <path id="Path_309" data-name="Path 309" class="cls-1" d="M11.111,34.479a1.973,1.973,0,0,1-1.624-.852A20.726,20.726,0,0,1,6.021,21.972c0-10.008,6.688-18.15,14.913-18.15a1.965,1.965,0,0,1,0,3.931c-6.053,0-10.98,6.38-10.98,14.219a16.767,16.767,0,0,0,2.778,9.43,1.964,1.964,0,0,1-1.621,3.077Z" transform="translate(6.927 -3.822)"/>
    </g>
  </g>
</svg>
