<svg xmlns="http://www.w3.org/2000/svg" viewBox="2740 4170.207 88 55.666">
  <defs>
    <style>
      .cls-1 {
        fill: #009ae9;
      }
    </style>
  </defs>
  <g id="shipped" transform="translate(2740 4076.145)">
    <g id="Group_485" data-name="Group 485" transform="translate(0 94.062)">
      <g id="Group_484" data-name="Group 484">
        <path id="Path_430" data-name="Path 430" class="cls-1" d="M81.84,117.661l-2.279-9.115a1.378,1.378,0,0,0,1.091-1.347v-1.47a5.794,5.794,0,0,0-5.787-5.787H64.485V96.91a2.851,2.851,0,0,0-2.848-2.848H8.726A2.851,2.851,0,0,0,5.879,96.91V121.9a1.378,1.378,0,0,0,2.756,0V96.91a.092.092,0,0,1,.092-.092h52.91a.092.092,0,0,1,.092.092V121.9a1.378,1.378,0,1,0,2.756,0v-1.562H80.746a4.509,4.509,0,0,1,4.282,3.123H80.743a1.378,1.378,0,0,0-1.378,1.378v2.939a4.322,4.322,0,0,0,4.317,4.317h1.562v6.063h-3.6a8.724,8.724,0,0,0-16.494,0h-.663v-10.38a1.378,1.378,0,0,0-2.756,0v10.38H33.14a8.724,8.724,0,0,0-16.494,0H8.726a.092.092,0,0,1-.092-.092v-3.031h5.971a1.378,1.378,0,0,0,0-2.756H1.378a1.378,1.378,0,0,0,0,2.756h4.5v3.031a2.851,2.851,0,0,0,2.848,2.848H16.17c0,.031,0,.061,0,.092a8.726,8.726,0,1,0,17.453,0c0-.031,0-.061,0-.092H64.67c0,.031,0,.061,0,.092a8.726,8.726,0,1,0,17.453,0c0-.031,0-.061,0-.092h4.5A1.378,1.378,0,0,0,88,139.532v-14.7A7.268,7.268,0,0,0,81.84,117.661ZM64.485,102.7h10.38a3.035,3.035,0,0,1,3.031,3.031v.092H64.485Zm0,14.881v-9H76.728l2.251,9H64.485ZM24.894,146.972A5.971,5.971,0,1,1,30.864,141,5.977,5.977,0,0,1,24.894,146.972Zm48.5,0A5.971,5.971,0,1,1,79.366,141,5.977,5.977,0,0,1,73.395,146.972Zm11.85-17.637H83.683a1.563,1.563,0,0,1-1.562-1.562v-1.562h3.123v3.123Z" transform="translate(0 -94.062)"/>
      </g>
    </g>
    <g id="Group_487" data-name="Group 487" transform="translate(22.046 138.154)">
      <g id="Group_486" data-name="Group 486" transform="translate(0 0)">
        <path id="Path_431" data-name="Path 431" class="cls-1" d="M131.115,350.6a2.848,2.848,0,1,0,2.848,2.848A2.851,2.851,0,0,0,131.115,350.6Z" transform="translate(-128.267 -350.597)"/>
      </g>
    </g>
    <g id="Group_489" data-name="Group 489" transform="translate(70.547 138.154)">
      <g id="Group_488" data-name="Group 488" transform="translate(0 0)">
        <path id="Path_432" data-name="Path 432" class="cls-1" d="M413.3,350.6a2.848,2.848,0,1,0,2.848,2.848A2.851,2.851,0,0,0,413.3,350.6Z" transform="translate(-410.455 -350.597)"/>
      </g>
    </g>
    <g id="Group_491" data-name="Group 491" transform="translate(35.273 132.275)">
      <g id="Group_490" data-name="Group 490" transform="translate(0 0)">
        <path id="Path_433" data-name="Path 433" class="cls-1" d="M227.181,316.393H206.6a1.378,1.378,0,0,0,0,2.756h20.576a1.378,1.378,0,0,0,0-2.756Z" transform="translate(-205.227 -316.393)"/>
      </g>
    </g>
    <g id="Group_493" data-name="Group 493" transform="translate(2.939 126.396)">
      <g id="Group_492" data-name="Group 492">
        <path id="Path_434" data-name="Path 434" class="cls-1" d="M36.117,282.188H18.48a1.378,1.378,0,1,0,0,2.756H36.117a1.378,1.378,0,1,0,0-2.756Z" transform="translate(-17.102 -282.188)"/>
      </g>
    </g>
    <g id="Group_495" data-name="Group 495" transform="translate(24.985 107.29)">
      <g id="Group_494" data-name="Group 494" transform="translate(0 0)">
        <path id="Path_435" data-name="Path 435" class="cls-1" d="M168.3,171.426a1.378,1.378,0,0,0-1.949,0L154.1,183.679l-6.374-6.374a1.378,1.378,0,1,0-1.949,1.949l7.349,7.349a1.378,1.378,0,0,0,1.948,0L168.3,173.375A1.378,1.378,0,0,0,168.3,171.426Z" transform="translate(-145.37 -171.023)"/>
      </g>
    </g>
  </g>
</svg>
