<svg xmlns="http://www.w3.org/2000/svg" viewBox="1088.3 3878.249 77.4 72.459">
  <defs>
    <style>
      .cls-1 {
        fill: #009ae9;
        stroke: #fff;
        stroke-width: 1.4px;
      }
    </style>
  </defs>
  <g id="message_3_" data-name="message (3)" transform="translate(1089 3862.186)">
    <g id="Group_278" data-name="Group 278" transform="translate(0 16.814)">
      <g id="Group_277" data-name="Group 277">
        <path id="Path_243" data-name="Path 243" class="cls-1" d="M75.942,43.65a1.122,1.122,0,0,0-.07-.386,1.94,1.94,0,0,0-.765-1.081L64.228,34.62V26.513a1.947,1.947,0,0,0-1.946-1.946H49.765l-10.649-7.4a1.945,1.945,0,0,0-2.217,0L26.181,24.567H13.719a1.946,1.946,0,0,0-1.946,1.946v8.012L.841,42.08A1.942,1.942,0,0,0,0,43.654c0,.011,0,.022,0,.034L.058,85.879A1.946,1.946,0,0,0,2,87.822h0l72.049-.1A1.947,1.947,0,0,0,76,85.774ZM64.227,39.361l6.219,4.322-6.219,4.324ZM38,21.129l4.944,3.437H33.029Zm-22.336,7.33H60.335V50.713l-15,10.427L39.223,56.4l-.027-.019a1.945,1.945,0,0,0-2.359.019l-6.159,4.777L15.666,50.8Zm-3.893,10.8v8.853l-6.4-4.426ZM3.9,47.4,27.45,63.677,3.945,81.909ZM7.7,83.922,38.03,60.4,68.25,83.839ZM48.56,63.64,72.055,47.306,72.1,81.9Z" transform="translate(0 -16.814)"/>
      </g>
    </g>
    <g id="Group_280" data-name="Group 280" transform="translate(22.877 36.244)">
      <g id="Group_279" data-name="Group 279">
        <path id="Path_244" data-name="Path 244" class="cls-1" d="M182.421,147.713H156.068a1.946,1.946,0,0,0,0,3.893h26.353a1.946,1.946,0,1,0,0-3.893Z" transform="translate(-154.122 -147.713)"/>
      </g>
    </g>
    <g id="Group_282" data-name="Group 282" transform="translate(22.877 46.365)">
      <g id="Group_281" data-name="Group 281">
        <path id="Path_245" data-name="Path 245" class="cls-1" d="M182.421,215.895H156.068a1.946,1.946,0,0,0,0,3.893h26.353a1.946,1.946,0,1,0,0-3.893Z" transform="translate(-154.122 -215.895)"/>
      </g>
    </g>
  </g>
</svg>
