<svg xmlns="http://www.w3.org/2000/svg" viewBox="3416.773 4166.935 64.805 67.547">
  <defs>
    <style>
      .cls-1 {
        fill: #009ae9;
      }
    </style>
  </defs>
  <g id="computer" transform="translate(3408.522 4166.935)">
    <path id="Path_437" data-name="Path 437" class="cls-1" d="M94.587,31.246A1.246,1.246,0,0,0,93.34,30H41.746A1.246,1.246,0,0,0,40.5,31.246V67.885a1.246,1.246,0,0,0,1.246,1.246H93.34a1.246,1.246,0,0,0,1.246-1.246ZM42.993,66.639V61.023h10.32a3.323,3.323,0,1,0,0-2.493H42.993V55.757H62.107l3.133,3.133a3.33,3.33,0,1,0,1.8-1.729L63.5,53.629a1.246,1.246,0,0,0-.881-.365H42.993V50.813H77.24a3.324,3.324,0,1,0,0-2.493H42.993V45.869h8.58a1.246,1.246,0,0,0,.881-.365l3.533-3.533a3.332,3.332,0,1,0-1.8-1.729l-3.134,3.134H42.993V32.493h49.1v3.073H72.737a1.246,1.246,0,0,0-.881.365l-3.533,3.533a3.332,3.332,0,1,0,1.8,1.729l3.134-3.134H92.094V59h-9.9a3.323,3.323,0,1,0,0,2.493h9.9v5.15h-49.1ZM55.56,59.776a.831.831,0,1,1,.831.831A.832.832,0,0,1,55.56,59.776Zm12.712-.365a.831.831,0,1,1-.831.831A.832.832,0,0,1,68.272,59.412Zm11.216-9.846a.831.831,0,1,1,.831.831A.832.832,0,0,1,79.488,49.566Zm-23.1-10.677a.831.831,0,1,1,.831.831A.832.832,0,0,1,56.392,38.889Zm11.525,3.657a.831.831,0,1,1-.831-.831A.832.832,0,0,1,67.917,42.546Zm12.025,17.7a.831.831,0,1,1-.831-.831A.832.832,0,0,1,79.942,60.243Z" transform="translate(-26.89 -25.015)"/>
    <path id="Path_438" data-name="Path 438" class="cls-1" d="M68.233,52.093H56.356V49.1H67.663a5.024,5.024,0,0,0,5.019-5.019V5.019A5.024,5.024,0,0,0,67.663,0H13.643A5.024,5.024,0,0,0,8.625,5.019V44.084A5.024,5.024,0,0,0,13.643,49.1H24.951v2.991H13.074a4.829,4.829,0,0,0-4.823,4.823v5.807a4.829,4.829,0,0,0,4.823,4.823H68.232a4.829,4.829,0,0,0,4.823-4.823V56.917a4.829,4.829,0,0,0-4.823-4.823Zm-57.115-8.01V5.019a2.529,2.529,0,0,1,2.526-2.526h54.02a2.529,2.529,0,0,1,2.526,2.526V44.084a2.529,2.529,0,0,1-2.526,2.526H13.643a2.529,2.529,0,0,1-2.526-2.526ZM27.444,49.1h26.42v2.991H27.444ZM70.563,62.724a2.333,2.333,0,0,1-2.331,2.331H13.074a2.333,2.333,0,0,1-2.331-2.331V56.917a2.333,2.333,0,0,1,2.331-2.331H68.233a2.333,2.333,0,0,1,2.331,2.331v5.807Z"/>
    <path id="Path_439" data-name="Path 439" class="cls-1" d="M67.681,352.484H46.245a1.246,1.246,0,0,0,0,2.493H67.681a1.246,1.246,0,1,0,0-2.493Z" transform="translate(-30.641 -293.91)"/>
    <path id="Path_440" data-name="Path 440" class="cls-1" d="M330.469,352.484H326.73a1.246,1.246,0,0,0,0,2.493h3.739a1.246,1.246,0,1,0,0-2.493Z" transform="translate(-264.517 -293.91)"/>
  </g>
</svg>
