<svg xmlns="http://www.w3.org/2000/svg" viewBox="2744.982 3582.249 77.015 72.025">
  <defs>
    <style>
      .cls-1 {
        fill: #009ae9;
      }
    </style>
  </defs>
  <g id="upload-information" transform="translate(2744.982 3566.375)">
    <path id="Path_310" data-name="Path 310" class="cls-1" d="M390.023,305.809a1.572,1.572,0,0,0-1.642,2.681,7.853,7.853,0,0,1,2.036,11.605,1.539,1.539,0,0,0,.243,2.209,1.492,1.492,0,0,0,2.209-.243,11.176,11.176,0,0,0,2.412-6.872A10.926,10.926,0,0,0,390.023,305.809Z" transform="translate(-326.705 -244.17)"/>
    <path id="Path_311" data-name="Path 311" class="cls-1" d="M59.472,52.814a17.522,17.522,0,0,0-3.465.345,17.533,17.533,0,0,0-8.918-14.075V34.97h4.958a1.572,1.572,0,0,0,1.141-2.653L39.706,16.428a1.572,1.572,0,0,0-2.4,0L23.772,32.382a1.572,1.572,0,0,0,1.2,2.589h4.954v4.114a17.533,17.533,0,0,0-8.918,14.074A17.542,17.542,0,1,0,17.542,87.9h41.93a17.542,17.542,0,1,0,0-35.084ZM28.366,31.827,38.507,19.874,48.649,31.827H45.517A1.572,1.572,0,0,0,43.946,33.4V53.535H33.069V33.4A1.572,1.572,0,0,0,31.5,31.827ZM59.472,84.755H17.542a14.4,14.4,0,1,1,4.522-28.069,1.454,1.454,0,0,0,1.446-.243,2.578,2.578,0,0,0,.6-2.057,14.388,14.388,0,0,1,5.817-11.569V55.107A1.572,1.572,0,0,0,31.5,56.679h14.02a1.572,1.572,0,0,0,1.572-1.572V42.815a14.256,14.256,0,0,1,5.817,11.57,2.7,2.7,0,0,0,.6,2.057,1.571,1.571,0,0,0,1.447.243,14.4,14.4,0,1,1,4.521,28.069Z" transform="translate(0 0)"/>
    <path id="Path_312" data-name="Path 312" class="cls-1" d="M70.595,302a7.817,7.817,0,0,0-7.892,4.328,1.584,1.584,0,0,0,.8,2.075,1.5,1.5,0,0,0,2.075-.8,4.929,4.929,0,0,1,4.683-2.48A1.572,1.572,0,0,0,70.595,302Z" transform="translate(-52.734 -241.117)"/>
  </g>
</svg>
