<svg xmlns="http://www.w3.org/2000/svg" viewBox="3419 3591 67.611 81.134">
  <defs>
    <style>
      .cls-1 {
        fill: #009ae9;
      }
    </style>
  </defs>
  <g id="notification_2_" data-name="notification (2)" transform="translate(3376.331 3591)">
    <g id="Group_355" data-name="Group 355" transform="translate(42.669)">
      <g id="Group_354" data-name="Group 354">
        <path id="Path_313" data-name="Path 313" class="cls-1" d="M46.238,269.959a1.69,1.69,0,0,0-2.388-.1q-.293.269-.606.543a1.69,1.69,0,1,0,2.231,2.54q.34-.3.659-.59A1.69,1.69,0,0,0,46.238,269.959Z" transform="translate(-42.669 -226.718)"/>
        <path id="Path_314" data-name="Path 314" class="cls-1" d="M68.488,172.956a1.69,1.69,0,0,0,2.353-.422c2.783-4,3.2-7.952,3.756-15.169a1.69,1.69,0,1,0-3.371-.259c-.522,6.8-.875,10.212-3.16,13.5A1.689,1.689,0,0,0,68.488,172.956Z" transform="translate(-63.787 -130.897)"/>
        <path id="Path_315" data-name="Path 315" class="cls-1" d="M397,132.125a1.69,1.69,0,1,0,3.306-.7c-.07-.327-.147-.656-.228-.979a1.69,1.69,0,1,0-3.276.833C396.875,131.555,396.942,131.841,397,132.125Z" transform="translate(-340.642 -108.699)"/>
        <path id="Path_316" data-name="Path 316" class="cls-1" d="M411.856,181.605c-4.948-4.115-6.035-8.124-6.724-16.127a1.69,1.69,0,0,0-3.368.29c.744,8.641,2.121,13.6,7.931,18.436a1.69,1.69,0,1,0,2.162-2.6Z" transform="translate(-344.854 -137.956)"/>
        <path id="Path_317" data-name="Path 317" class="cls-1" d="M123.9,49.8c-.023-.045-.047-.089-.073-.131a4.237,4.237,0,0,0-1.557-1.647c-4.562-2.633-7.322-9.8-8.206-21.29A19.884,19.884,0,0,0,99.42,9.108a5.918,5.918,0,1,0-9.962,0A19.884,19.884,0,0,0,74.815,26.727c-.883,11.494-3.644,18.657-8.205,21.29-1.321.762-2.18,2.381-2.482,4.682-.2,1.494-.257,4.63.922,5.808A1.69,1.69,0,0,0,66.244,59H84.281A10.3,10.3,0,0,0,104.6,59h18.037a1.69,1.69,0,0,0,1.195-.495c1.179-1.179,1.118-4.316.921-5.81A8.669,8.669,0,0,0,123.9,49.8ZM94.439,3.381A2.538,2.538,0,1,1,91.9,5.918,2.541,2.541,0,0,1,94.439,3.381Zm0,60.851A6.931,6.931,0,0,1,87.73,59h13.419A6.931,6.931,0,0,1,94.439,64.231Zm26.977-8.61H67.463a9.99,9.99,0,0,1-.011-2.256c.162-1.51.6-2.275.847-2.421,5.665-3.269,8.9-11.106,9.886-23.959a16.294,16.294,0,0,1,32.507,0A53.128,53.128,0,0,0,113.7,42.1h-6.354a1.69,1.69,0,0,0,0,3.381h7.974a16.606,16.606,0,0,0,2.567,3.381H101.031a1.69,1.69,0,0,0,0,3.381h20.2a7.871,7.871,0,0,1,.2,1.124A9.979,9.979,0,0,1,121.416,55.622Z" transform="translate(-60.634)"/>
        <path id="Path_318" data-name="Path 318" class="cls-1" d="M174.159,490.664H140.353a1.69,1.69,0,1,0,0,3.381h33.806a1.69,1.69,0,1,0,0-3.381Z" transform="translate(-123.451 -412.91)"/>
        <path id="Path_319" data-name="Path 319" class="cls-1" d="M244.836,308.339h-1.014a1.69,1.69,0,0,0,0,3.381h1.014a1.69,1.69,0,0,0,0-3.381Z" transform="translate(-210.523 -259.478)"/>
      </g>
    </g>
  </g>
</svg>
