<svg xmlns="http://www.w3.org/2000/svg" viewBox="2409.226 3881.629 74.773 67.83">
  <defs>
    <style>
      .cls-1 {
        fill: #009ae9;
      }
    </style>
  </defs>
  <g id="map_2_" data-name="map (2)" transform="translate(2409.226 3857.859)">
    <g id="Group_357" data-name="Group 357" transform="translate(47.163 48.868)">
      <g id="Group_356" data-name="Group 356" transform="translate(0 0)">
        <path id="Path_350" data-name="Path 350" class="cls-1" d="M328.973,195.628a6.033,6.033,0,1,0,6.033,6.033A6.04,6.04,0,0,0,328.973,195.628Zm0,9.871a3.838,3.838,0,1,1,3.838-3.838A3.842,3.842,0,0,1,328.973,205.5Z" transform="translate(-322.94 -195.628)"/>
      </g>
    </g>
    <g id="Group_359" data-name="Group 359" transform="translate(0 23.77)">
      <g id="Group_358" data-name="Group 358" transform="translate(0 0)">
        <path id="Path_351" data-name="Path 351" class="cls-1" d="M73.676,48.492a1.1,1.1,0,0,0,1.1-1.1V37.737a1.1,1.1,0,0,0-1.1-1.1H10.306V24.868a1.1,1.1,0,0,0-1.1-1.1A9.219,9.219,0,0,0,0,32.979V83.161a1.1,1.1,0,0,0,.027.241v0c.006.085.016.17.025.255.006.055.01.111.017.166a8.865,8.865,0,0,0,8.8,7.775H73.675a1.1,1.1,0,0,0,1.1-1.1V51.785a1.1,1.1,0,1,0-2.2,0V69.857H59.939c3.307-3.865,6.728-9.244,6.728-14.956a13.389,13.389,0,0,0-1.846-6.8l7.756-7.756v7.047A1.1,1.1,0,0,0,73.676,48.492ZM57.121,38.835h4.912l-3.638,3.638a13.37,13.37,0,0,0-1.273-.46Zm-6.33,0h4.134v2.705a13.55,13.55,0,0,0-4.135.1v-2.81Zm-20.485,0H48.6v3.4A13.5,13.5,0,0,0,39.724,54.9a15.13,15.13,0,0,0,.2,2.4H30.307V38.835Zm-20,0H21.782v5.9H10.306ZM2.2,32.979h0a7.025,7.025,0,0,1,5.916-6.928V63.545a1.1,1.1,0,0,0,2.2,0V53.264H21.782V78.391H4.073a7.011,7.011,0,0,1,3.709-2.1l.018,0c.1-.02.2-.038.3-.054l.051-.009c.091-.014.183-.025.275-.035l.077-.009c.089-.009.178-.015.268-.02l.085-.006q.176-.009.354-.009a1.1,1.1,0,0,0,1.1-1.1V67.936a1.1,1.1,0,0,0-2.2,0v6.081c-.145.017-.289.039-.433.063l-.026,0c-.135.023-.269.049-.4.078l-.026.006a9.15,9.15,0,0,0-4.446,2.4q-.308.3-.583.625V32.979ZM8.866,89.405a6.639,6.639,0,0,1-5.211-2.489H21.782v2.489Zm19.245-24.68v24.68H23.977V85.819a1.1,1.1,0,0,0-1.1-1.1H2.5a6.6,6.6,0,0,1-.209-.873v0c-.022-.131-.039-.263-.053-.4,0-.028-.006-.056-.009-.084-.013-.138-.023-.277-.027-.417,0-.109.009-.218.018-.327,0-.028.005-.055.008-.083.007-.081.015-.163.025-.243,0-.031.009-.063.013-.094.01-.076.021-.152.034-.228.006-.034.012-.068.019-.1.013-.071.027-.142.043-.213q.012-.057.026-.114.022-.1.048-.19l.029-.106.013-.044c.013-.046.027-.091.041-.137s.023-.074.036-.11.025-.076.038-.113l.014-.041c.018-.049.036-.1.055-.147l.027-.069H22.88a1.1,1.1,0,0,0,1.1-1.1V52.166a1.1,1.1,0,0,0-1.1-1.1H10.306V46.934H22.88a1.1,1.1,0,0,0,1.1-1.1v-7h4.134V58.4a1.1,1.1,0,0,0,1.1,1.1H40.422a22.537,22.537,0,0,0,1.712,4.134H29.209A1.1,1.1,0,0,0,28.112,64.725ZM48.6,89.405H43.534L48.6,84.343Zm8.525,0V78.382H72.578V89.4H57.121ZM72.578,72.053v4.134H56.024a1.1,1.1,0,0,0-1.1,1.1V89.4H50.792V81.693a1.1,1.1,0,0,0-1.874-.776L40.429,89.4H34.583l5.468-5.468A1.1,1.1,0,1,0,38.5,82.385l-7.02,7.02H30.307V65.823H43.424a41.069,41.069,0,0,0,5.219,6.416l-7.022,7.022a1.1,1.1,0,0,0,1.552,1.552l7.046-7.046c1.268,1.174,2.17,1.881,2.3,1.984a1.1,1.1,0,0,0,1.344,0,42.68,42.68,0,0,0,4.064-3.7ZM53.2,73.463C50.673,71.32,41.919,63.28,41.919,54.9a11.276,11.276,0,0,1,22.553,0C64.472,63.28,55.719,71.32,53.2,73.463ZM63.54,46.28a13.583,13.583,0,0,0-3.108-2.738l4.707-4.707h5.847Z" transform="translate(0 -23.77)"/>
      </g>
    </g>
  </g>
</svg>
