<svg xmlns="http://www.w3.org/2000/svg" viewBox="2748 3898.657 68 62.414">
  <defs>
    <style>
      .cls-1 {
        fill: #009ae9;
      }
    </style>
  </defs>
  <g id="chat_1_" data-name="chat (1)" transform="translate(2748 3896.192)">
    <path id="Path_352" data-name="Path 352" class="cls-1" d="M10.133,25.732H24.867a1.133,1.133,0,1,0,0-2.267H10.133a1.133,1.133,0,0,0,0,2.267Z" transform="translate(1.2 2.8)"/>
    <path id="Path_353" data-name="Path 353" class="cls-1" d="M39.6,29.465H10.133a1.133,1.133,0,1,0,0,2.267H39.6a1.133,1.133,0,0,0,0-2.267Z" transform="translate(1.2 3.6)"/>
    <path id="Path_354" data-name="Path 354" class="cls-1" d="M39.6,35.465H10.133a1.133,1.133,0,0,0,0,2.267H39.6a1.133,1.133,0,0,0,0-2.267Z" transform="translate(1.2 4.4)"/>
    <path id="Path_355" data-name="Path 355" class="cls-1" d="M61.281,2.544,22.587,2.465a6.728,6.728,0,0,0-6.721,6.721v5.807l-9.146.019A6.728,6.728,0,0,0,0,21.733v23.96a6.727,6.727,0,0,0,6.721,6.72H13.6V63.745a1.134,1.134,0,0,0,1.972.763l11-12.1,18.843-.077a6.728,6.728,0,0,0,6.721-6.72v-.128l5.961,6.557a1.134,1.134,0,0,0,1.972-.763V39.947h1.213A6.728,6.728,0,0,0,68,33.227V9.265A6.728,6.728,0,0,0,61.281,2.544ZM49.867,45.612a4.459,4.459,0,0,1-4.459,4.453l-19.346.079a1.134,1.134,0,0,0-.834.371l-9.361,10.3V51.278a1.133,1.133,0,0,0-1.133-1.133H6.721a4.459,4.459,0,0,1-4.454-4.453V21.732a4.46,4.46,0,0,1,4.456-4.454L17,17.256h0l28.41-.059a4.459,4.459,0,0,1,4.454,4.454V45.612ZM65.733,33.225a4.458,4.458,0,0,1-4.454,4.453H58.933A1.133,1.133,0,0,0,57.8,38.811v9.536l-5.667-6.233V21.652a6.728,6.728,0,0,0-6.723-6.721l-27.277.056v-5.8a4.459,4.459,0,0,1,4.452-4.454l38.693.079h0a4.459,4.459,0,0,1,4.454,4.454V33.225Z" transform="translate(0 0)"/>
  </g>
</svg>
