<svg xmlns="http://www.w3.org/2000/svg" viewBox="3092 3883.026 51.374 75.165">
  <defs>
    <style>
      .cls-1 {
        fill: #009ae9;
      }
    </style>
  </defs>
  <g id="earning-money-idea" transform="translate(3044.809 3883.026)">
    <path id="Path_356" data-name="Path 356" class="cls-1" d="M72.88,0A25.718,25.718,0,0,0,47.191,25.689a25.367,25.367,0,0,0,5.5,15.838c.71.9,1.469,1.783,2.271,2.717l.142.166c2.642,3.065,5.638,6.539,6.773,10.707a15.129,15.129,0,0,1,.321,4.257v2.143a1.387,1.387,0,0,0,1.387,1.387H82.024a1.387,1.387,0,0,0,1.387-1.387V59.38a14.288,14.288,0,0,1,.32-4.027c1.143-4.129,4.3-7.847,7.094-11.127l.017-.02c.795-.933,1.545-1.814,2.223-2.674a25.349,25.349,0,0,0,5.5-15.843A25.716,25.716,0,0,0,72.88,0ZM90.886,39.815c-.645.819-1.379,1.68-2.156,2.593l-.018.021c-2.976,3.5-6.348,7.465-7.655,12.185a17.127,17.127,0,0,0-.42,4.777v.741H64.969V59.4a17.876,17.876,0,0,0-.419-5.009c-1.3-4.774-4.513-8.5-7.347-11.788l-.142-.164c-.783-.911-1.522-1.771-2.2-2.625a22.618,22.618,0,0,1-4.9-14.122,22.913,22.913,0,1,1,45.826,0A22.6,22.6,0,0,1,90.886,39.815Z"/>
    <path id="Path_357" data-name="Path 357" class="cls-1" d="M126.542,254.756H108.1a1.387,1.387,0,0,0,0,2.774h18.443a1.387,1.387,0,1,0,0-2.774Z" transform="translate(-44.518 -190.54)"/>
    <path id="Path_358" data-name="Path 358" class="cls-1" d="M126.542,270.971H108.1a1.387,1.387,0,0,0,0,2.774h18.443a1.387,1.387,0,0,0,0-2.774Z" transform="translate(-44.518 -202.668)"/>
    <path id="Path_359" data-name="Path 359" class="cls-1" d="M135.613,287.185h-9.221a1.387,1.387,0,0,0,0,2.774h9.221a1.387,1.387,0,1,0,0-2.774Z" transform="translate(-58.2 -214.795)"/>
    <path id="Path_360" data-name="Path 360" class="cls-1" d="M128.3,52.28a1.387,1.387,0,0,0,2.774,0c0-3.8-3.378-6.962-7.772-7.519V42.953a1.387,1.387,0,1,0-2.774,0v1.808c-4.394.557-7.772,3.717-7.772,7.519s3.377,6.958,7.772,7.515v9.632c-2.855-.48-5-2.41-5-4.711a1.387,1.387,0,0,0-2.774,0c0,3.8,3.377,6.958,7.772,7.515v1.812a1.387,1.387,0,1,0,2.774,0V72.231c4.395-.556,7.772-3.714,7.772-7.515s-3.378-6.963-7.772-7.52V47.565C126.162,48.046,128.3,49.977,128.3,52.28Zm-12.77,0c0-2.3,2.142-4.235,5-4.715v9.427C117.677,56.511,115.535,54.582,115.535,52.28ZM128.3,64.715c0,2.3-2.142,4.231-5,4.712V60C126.162,60.48,128.3,62.412,128.3,64.715Z" transform="translate(-49.042 -31.089)"/>
  </g>
</svg>
