<svg xmlns="http://www.w3.org/2000/svg" viewBox="3424 3887.026 56.713 73.974">
  <defs>
    <style>
      .cls-1 {
        fill: #009ae9;
      }
    </style>
  </defs>
  <g id="shipping" transform="translate(3368 3887.026)">
    <g id="Group_361" data-name="Group 361" transform="translate(60.932 48.083)">
      <g id="Group_360" data-name="Group 360" transform="translate(0)">
        <path id="Path_361" data-name="Path 361" class="cls-1" d="M89.233,312A1.233,1.233,0,0,0,88,313.233v4.932a1.233,1.233,0,1,0,2.466,0v-4.932A1.233,1.233,0,0,0,89.233,312Z" transform="translate(-88 -312)"/>
      </g>
    </g>
    <g id="Group_363" data-name="Group 363" transform="translate(65.863 50.549)">
      <g id="Group_362" data-name="Group 362" transform="translate(0)">
        <path id="Path_362" data-name="Path 362" class="cls-1" d="M121.233,328A1.233,1.233,0,0,0,120,329.233v4.932a1.233,1.233,0,1,0,2.466,0v-4.932A1.233,1.233,0,0,0,121.233,328Z" transform="translate(-120 -328)"/>
      </g>
    </g>
    <g id="Group_365" data-name="Group 365" transform="translate(75.724 6.161)">
      <g id="Group_364" data-name="Group 364" transform="translate(0)">
        <path id="Path_363" data-name="Path 363" class="cls-1" d="M200.092,44.3a1.233,1.233,0,0,0-2.133,1.233,6.153,6.153,0,1,1-3.287-2.733,1.233,1.233,0,0,0,.824-2.322,8.633,8.633,0,1,0,4.6,3.822Z" transform="translate(-183.985 -39.98)"/>
      </g>
    </g>
    <g id="Group_367" data-name="Group 367" transform="translate(56 0)">
      <g id="Group_366" data-name="Group 366" transform="translate(0 0)">
        <path id="Path_364" data-name="Path 364" class="cls-1" d="M112.7,24.551c0-.036-.009-.072-.015-.108a1.233,1.233,0,0,0-.139-.4V24.03c0-.009-.015-.014-.02-.022a1.231,1.231,0,0,0-.269-.3.962.962,0,0,0-.079-.063c-.023-.016-.042-.037-.067-.052l-13-7.682c.027-.37.043-.74.043-1.119a14.795,14.795,0,1,0-29.589,0c0,.37.016.75.043,1.119l-13,7.682A1.233,1.233,0,0,0,56,24.658V56.713a1.233,1.233,0,0,0,.605,1.062L83.729,73.8a1.011,1.011,0,0,0,.1.042.974.974,0,0,0,.1.044,1.1,1.1,0,0,0,.848,0,.993.993,0,0,0,.1-.044c.032-.015.067-.023.1-.042l27.124-16.028a1.233,1.233,0,0,0,.605-1.062V24.658C112.713,24.621,112.7,24.586,112.7,24.551Zm-3.643.107-6.411,3.789-6.576-3.885a20.779,20.779,0,0,0,2.615-6.033ZM95.037,35.8l6.369-3.764v8.232l-6.369,3.764ZM93.81,33.668l-3.644-2.154a36.966,36.966,0,0,0,4.5-4.916l5.554,3.281Zm-9.454-31.2A12.342,12.342,0,0,1,96.685,14.795c0,8.918-9.679,16.363-12.329,18.234-2.649-1.872-12.329-9.317-12.329-18.234A12.343,12.343,0,0,1,84.357,2.466ZM110.247,56.01,85.589,70.581v-4a1.233,1.233,0,1,0-2.466,0v4L58.466,56.01V25.361l11.562-6.831C72.4,28.26,83.182,35.235,83.694,35.562a1.233,1.233,0,0,0,1.324,0A36.6,36.6,0,0,0,88.2,33.219L91.384,35.1l-7.027,4.154L62.034,26.062a1.233,1.233,0,0,0-1.255,2.123l22.345,13.2V61.645a1.233,1.233,0,1,0,2.466,0V41.389l6.987-4.129V46.2a1.233,1.233,0,0,0,1.86,1.062l8.835-5.218a1.233,1.233,0,0,0,.605-1.063v-10.4l6.37-3.764Z" transform="translate(-56 0)"/>
      </g>
    </g>
  </g>
</svg>
