<svg id="car" xmlns="http://www.w3.org/2000/svg" viewBox="0 0 216.109 216.109">
  <defs>
    <style>
      .cls-1 {
        fill: #009ae9;
      }
    </style>
  </defs>
  <g id="Group_2" data-name="Group 2" transform="translate(0)">
    <g id="Group_1" data-name="Group 1" transform="translate(0)">
      <path id="Path_1" data-name="Path 1" class="cls-1" d="M108.054,0A108.054,108.054,0,1,0,216.109,108.054,108.055,108.055,0,0,0,108.054,0Zm0,208.905A100.851,100.851,0,1,1,208.905,108.054,100.851,100.851,0,0,1,108.054,208.905Z" transform="translate(0)"/>
    </g>
  </g>
  <g id="Group_4" data-name="Group 4" transform="translate(14.407 14.407)">
    <g id="Group_3" data-name="Group 3">
      <path id="Path_2" data-name="Path 2" class="cls-1" d="M125.647,32a93.647,93.647,0,1,0,93.647,93.647A93.647,93.647,0,0,0,125.647,32Zm83.292,70.581L157.9,122.359a32.178,32.178,0,0,0-4.268-13L206.6,95.349C207.484,97.712,208.258,100.125,208.939,102.581ZM125.647,39.2a86.551,86.551,0,0,1,78.109,49.446l-54.82,14.5a32.29,32.29,0,0,0-45.656-.923q-.471.452-.923.923l-54.82-14.5A86.551,86.551,0,0,1,125.647,39.2Zm25.213,86.444a25.213,25.213,0,1,1-25.213-25.213A25.242,25.242,0,0,1,150.86,125.647ZM44.7,95.363l52.968,14.015A32.172,32.172,0,0,0,93.4,122.359L42.355,102.6C43.036,100.139,43.8,97.726,44.7,95.363ZM39.2,125.647a86.519,86.519,0,0,1,1.506-15.978l52.882,20.487a32.449,32.449,0,0,0,17.869,24.59L114.6,211.37A86.555,86.555,0,0,1,39.2,125.647Zm90.251,86.346c-1.261.054-2.521.1-3.8.1s-2.546-.043-3.807-.1l-3.04-54.672a31.893,31.893,0,0,0,13.687,0Zm12.365-1.435q-2.548.483-5.122.811v-.011l3.144-56.613a32.449,32.449,0,0,0,17.861-24.59l52.875-20.487A86.332,86.332,0,0,1,141.819,210.559Z" transform="translate(-32 -32)"/>
    </g>
  </g>
  <g id="Group_6" data-name="Group 6" transform="translate(90.045 90.045)">
    <g id="Group_5" data-name="Group 5">
      <path id="Path_3" data-name="Path 3" class="cls-1" d="M218.009,200a18.009,18.009,0,1,0,18.009,18.009A18.009,18.009,0,0,0,218.009,200Zm0,28.815a10.805,10.805,0,1,1,10.805-10.805A10.805,10.805,0,0,1,218.009,228.815Z" transform="translate(-200 -200)"/>
    </g>
  </g>
</svg>
