<svg xmlns="http://www.w3.org/2000/svg" viewBox="4747 4160.59 51.314 68.409">
  <defs>
    <style>
      .cls-1 {
        fill: #009ae9;
      }
    </style>
  </defs>
  <g id="placeholder_5_" data-name="placeholder (5)" transform="translate(4683.026 4160.59)">
    <g id="Group_480" data-name="Group 480" transform="translate(63.974 0)">
      <g id="Group_479" data-name="Group 479" transform="translate(0 0)">
        <path id="Path_426" data-name="Path 426" class="cls-1" d="M115.126,66l-9.019-19.077a1.688,1.688,0,0,0-.866-.831l-4.487-2,7.774-13.03c.019-.031.036-.063.053-.1a21.293,21.293,0,0,0-4.009-24.841A21.283,21.283,0,0,0,70.68,30.969q.025.048.053.1l7.774,13.029L73.994,46.1a1.687,1.687,0,0,0-.84.821L64.136,66a1.688,1.688,0,0,0,2.213,2.264l11.3-5.03,11.3,5.03a1.689,1.689,0,0,0,1.373,0l11.3-5.03,11.3,5.03A1.688,1.688,0,0,0,115.126,66ZM73.661,29.382a17.7,17.7,0,0,1-1.933-8.211A17.993,17.993,0,0,1,89.377,3.378a17.911,17.911,0,0,1,16.225,26L91.081,53.719a1.688,1.688,0,0,1-2.9,0ZM102.3,59.844a1.689,1.689,0,0,0-1.373,0l-11.3,5.03-11.3-5.03a1.689,1.689,0,0,0-1.373,0l-7.827,3.485,6.806-14.4,4.31-1.918,5.033,8.435a5.064,5.064,0,0,0,8.7,0l5.033-8.435,4.31,1.919,6.806,14.4Z" transform="translate(-63.974 0)"/>
      </g>
    </g>
    <g id="Group_482" data-name="Group 482" transform="translate(81.928 13.576)">
      <g id="Group_481" data-name="Group 481" transform="translate(0)">
        <path id="Path_427" data-name="Path 427" class="cls-1" d="M206.049,101.607a7.7,7.7,0,1,0,7.7,7.7A7.713,7.713,0,0,0,206.049,101.607Zm0,12.032a4.328,4.328,0,1,1,4.328-4.328A4.333,4.333,0,0,1,206.049,113.639Z" transform="translate(-198.345 -101.607)"/>
      </g>
    </g>
  </g>
</svg>
