<svg xmlns="http://www.w3.org/2000/svg" viewBox="5412.244 4190.242 60.919 60.919">
  <defs>
    <style>
      .cls-1 {
        fill: #009ae9;
      }
    </style>
  </defs>
  <g id="settings_1_" data-name="settings (1)" transform="translate(5412.244 4190.241)">
    <g id="Group_483" data-name="Group 483" transform="translate(0 0.001)">
      <path id="Path_428" data-name="Path 428" class="cls-1" d="M57.8,24.066l-4.276-.725a24.143,24.143,0,0,0-1.718-4.149l2.52-3.525a3.752,3.752,0,0,0-.407-4.849L50.127,7.026a3.736,3.736,0,0,0-2.66-1.107,3.7,3.7,0,0,0-2.176.7l-3.538,2.52a23.893,23.893,0,0,0-4.3-1.769L36.74,3.144A3.759,3.759,0,0,0,33.024,0H27.666A3.759,3.759,0,0,0,23.95,3.144l-.738,4.327a23.549,23.549,0,0,0-4.136,1.743l-3.5-2.52a3.759,3.759,0,0,0-4.849.407L6.923,10.894a3.767,3.767,0,0,0-.407,4.849l2.545,3.576A23.583,23.583,0,0,0,7.368,23.48l-4.225.713A3.759,3.759,0,0,0,0,27.909v5.358a3.759,3.759,0,0,0,3.143,3.716l4.327.738a23.549,23.549,0,0,0,1.743,4.136L6.707,45.343a3.752,3.752,0,0,0,.407,4.849l3.792,3.792a3.736,3.736,0,0,0,2.66,1.107,3.7,3.7,0,0,0,2.176-.7l3.576-2.545A24.074,24.074,0,0,0,23.339,53.5l.713,4.276a3.759,3.759,0,0,0,3.716,3.143h5.37a3.759,3.759,0,0,0,3.716-3.143L37.58,53.5a24.144,24.144,0,0,0,4.149-1.718l3.525,2.52a3.736,3.736,0,0,0,2.189.7h0A3.736,3.736,0,0,0,50.1,53.9L53.894,50.1a3.767,3.767,0,0,0,.407-4.849l-2.52-3.538A23.971,23.971,0,0,0,53.5,37.568l4.276-.713a3.759,3.759,0,0,0,3.143-3.716V27.782A3.714,3.714,0,0,0,57.8,24.066Zm-.293,9.074a.33.33,0,0,1-.28.331l-5.345.891a1.708,1.708,0,0,0-1.374,1.26,20.372,20.372,0,0,1-2.214,5.332,1.721,1.721,0,0,0,.076,1.871l3.143,4.429a.347.347,0,0,1-.038.433l-3.792,3.792a.323.323,0,0,1-.242.1.313.313,0,0,1-.191-.064l-4.416-3.143a1.72,1.72,0,0,0-1.871-.076,20.372,20.372,0,0,1-5.332,2.214,1.689,1.689,0,0,0-1.26,1.374l-.9,5.345a.33.33,0,0,1-.331.28H27.781a.33.33,0,0,1-.331-.28l-.891-5.345A1.708,1.708,0,0,0,25.3,50.51a21.154,21.154,0,0,1-5.218-2.138,1.762,1.762,0,0,0-.865-.229,1.676,1.676,0,0,0-.993.318L13.769,51.63a.379.379,0,0,1-.191.064.341.341,0,0,1-.242-.1L9.544,47.8a.345.345,0,0,1-.038-.433l3.131-4.39a1.742,1.742,0,0,0,.076-1.883,20.18,20.18,0,0,1-2.24-5.319A1.743,1.743,0,0,0,9.1,34.514L3.716,33.6a.33.33,0,0,1-.28-.331V27.909a.33.33,0,0,1,.28-.331l5.307-.891a1.721,1.721,0,0,0,1.387-1.273,20.351,20.351,0,0,1,2.176-5.345,1.7,1.7,0,0,0-.089-1.858L9.328,13.758a.347.347,0,0,1,.038-.433l3.792-3.792a.323.323,0,0,1,.242-.1.313.313,0,0,1,.191.064l4.39,3.131a1.742,1.742,0,0,0,1.883.076,20.18,20.18,0,0,1,5.319-2.24,1.743,1.743,0,0,0,1.26-1.374L27.361,3.7a.33.33,0,0,1,.331-.28h5.358a.33.33,0,0,1,.331.28l.891,5.307A1.721,1.721,0,0,0,35.543,10.4,20.656,20.656,0,0,1,41,12.638a1.721,1.721,0,0,0,1.871-.076l4.39-3.156a.379.379,0,0,1,.191-.064.341.341,0,0,1,.242.1l3.792,3.792a.345.345,0,0,1,.038.433l-3.143,4.416a1.72,1.72,0,0,0-.076,1.871,20.372,20.372,0,0,1,2.214,5.332,1.689,1.689,0,0,0,1.374,1.26l5.345.9a.33.33,0,0,1,.28.331v5.358Z" transform="translate(0 -0.001)"/>
      <path id="Path_429" data-name="Path 429" class="cls-1" d="M149.246,136a13.146,13.146,0,1,0,13.146,13.146A13.154,13.154,0,0,0,149.246,136Zm0,22.856a9.71,9.71,0,1,1,9.71-9.71A9.716,9.716,0,0,1,149.246,158.857Z" transform="translate(-118.78 -118.694)"/>
    </g>
  </g>
</svg>
