<svg xmlns="http://www.w3.org/2000/svg" viewBox="4732 3574.508 80 79.985">
  <defs>
    <style>
      .cls-1 {
        fill: #009ae9;
      }
    </style>
  </defs>
  <g id="world_1_" data-name="world (1)" transform="translate(4732 3574.459)">
    <g id="Group_375" data-name="Group 375" transform="translate(9.333 10.716)">
      <g id="Group_374" data-name="Group 374">
        <path id="Path_368" data-name="Path 368" class="cls-1" d="M90.4,68.316a30.667,30.667,0,1,0,30.667,30.667A30.7,30.7,0,0,0,90.4,68.316Zm0,58.667a28,28,0,1,1,28-28A28.032,28.032,0,0,1,90.4,126.983Z" transform="translate(-59.733 -68.316)"/>
      </g>
    </g>
    <g id="Group_377" data-name="Group 377" transform="translate(33.381 13.383)">
      <g id="Group_376" data-name="Group 376">
        <path id="Path_369" data-name="Path 369" class="cls-1" d="M233.127,85.549a1.349,1.349,0,0,0-.385-.112l-.308-.041a1.318,1.318,0,0,0-1.235.511,1.334,1.334,0,0,0-.172,1.325c.916,2.189,2.007,6.615.612,7.631L228.549,96.1a6.9,6.9,0,0,0-4.28,5.617l-.02.153a.828.828,0,0,1-.689.712.945.945,0,0,1-1.025-.437l-1.324-2.207a2.545,2.545,0,0,0-4.489.223,33.752,33.752,0,0,0-3.048,9.251,4.866,4.866,0,0,0,.485,2.755l1.537,3.075a6.717,6.717,0,0,0,2.42,2.667,17.475,17.475,0,0,1,3.863,3.188,8.022,8.022,0,0,0,4.881,2.861c-.075,2.5.089,6.6,1.789,8.416a3.065,3.065,0,0,0,2.165,1.009,5.749,5.749,0,0,0,.752.047,6.5,6.5,0,0,0,4.152-1.472c2.1-1.739,3.183-4.8,3.207-9.092l1.909-8.595.725,1.208a4.061,4.061,0,0,0,5.917,1.159l2.915-2.187a1.333,1.333,0,0,0,.533-1.067A30.776,30.776,0,0,0,233.127,85.549ZM245.877,114.5a1.394,1.394,0,0,1-2.031-.4l-1.383-2.305a2.157,2.157,0,0,0-3.955.643l-2.219,9.985a1.314,1.314,0,0,0-.032.289c0,3.463-.763,5.937-2.205,7.157a3.8,3.8,0,0,1-2.875.867c-.172-.032-.3.107-.583-.192-.831-.887-1.251-3.981-1.021-7.528a1.542,1.542,0,0,0-1.544-1.637,5.242,5.242,0,0,1-4-1.987,19.631,19.631,0,0,0-4.493-3.744,4.036,4.036,0,0,1-1.457-1.6l-1.537-3.075a2.2,2.2,0,0,1-.223-1.248,31.571,31.571,0,0,1,2.719-8.225l1.209,2.015a3.6,3.6,0,0,0,3.847,1.677,3.484,3.484,0,0,0,2.8-2.961l.028-.211a4.231,4.231,0,0,1,2.62-3.447l3.215-1.285a1.41,1.41,0,0,0,.2-.1c2.533-1.539,2.205-5.221,1.54-7.917a28.124,28.124,0,0,1,13.76,23.45Z" transform="translate(-213.639 -85.383)"/>
      </g>
    </g>
    <g id="Group_379" data-name="Group 379" transform="translate(10.338 45.118)">
      <g id="Group_378" data-name="Group 378">
        <path id="Path_370" data-name="Path 370" class="cls-1" d="M89.539,303.25l-.808-.807a10.794,10.794,0,0,0-3.4-2.3l-4.112-1.763a4.5,4.5,0,0,1-2.728-4.139v-2.007a3.745,3.745,0,0,0-5.06-3.505l-6.4,2.4a1.334,1.334,0,0,0-.82,1.595,30.84,30.84,0,0,0,23.612,22.108,1.352,1.352,0,0,0,.261.025,1.335,1.335,0,0,0,1.283-.967l.488-1.709A9.1,9.1,0,0,0,89.539,303.25Zm-.249,8.2-.144.5a28.184,28.184,0,0,1-20.02-18.758l5.243-1.965a1.078,1.078,0,0,1,1.457,1.008v2.007a7.161,7.161,0,0,0,4.344,6.589l4.112,1.763a8.167,8.167,0,0,1,2.564,1.736l.808.807A6.432,6.432,0,0,1,89.29,311.447Z" transform="translate(-66.164 -288.491)"/>
      </g>
    </g>
    <g id="Group_381" data-name="Group 381" transform="translate(9.377 14.848)">
      <g id="Group_380" data-name="Group 380">
        <path id="Path_371" data-name="Path 371" class="cls-1" d="M76.657,95.256a1.333,1.333,0,0,0-1.719-.3,30.622,30.622,0,0,0-14.925,24.7,1.333,1.333,0,0,0,1.331,1.4,1.362,1.362,0,0,0,.483-.089L70.1,117.7a4.039,4.039,0,0,0,2.329-5.023,1.364,1.364,0,0,1,.331-1.4l3.843-3.843a6.9,6.9,0,0,0,2.035-4.911v-1.735A8.821,8.821,0,0,0,76.657,95.256Zm-.689,7.271a4.244,4.244,0,0,1-1.255,3.025l-3.843,3.843a4.012,4.012,0,0,0-.973,4.128,1.369,1.369,0,0,1-.789,1.7L62.865,117.7A27.952,27.952,0,0,1,75.236,97.912a6.088,6.088,0,0,1,.732,2.88Z" transform="translate(-60.011 -94.763)"/>
      </g>
    </g>
    <g id="Group_383" data-name="Group 383" transform="translate(34.669 0.049)">
      <g id="Group_382" data-name="Group 382">
        <path id="Path_372" data-name="Path 372" class="cls-1" d="M227.213.049A40.644,40.644,0,0,0,223.08.26a1.333,1.333,0,0,0,.135,2.66,1.19,1.19,0,0,0,.137-.008,38.348,38.348,0,0,1,3.861-.2,1.333,1.333,0,0,0,0-2.667Z" transform="translate(-221.882 -0.049)"/>
      </g>
    </g>
    <g id="Group_385" data-name="Group 385" transform="translate(0 37.336)">
      <g id="Group_384" data-name="Group 384">
        <path id="Path_373" data-name="Path 373" class="cls-1" d="M3.192,247.67a37.757,37.757,0,0,1-.525-6.275q0-.668.024-1.333a1.333,1.333,0,1,0-2.665-.092Q0,240.68,0,241.4a40.52,40.52,0,0,0,.561,6.72,1.334,1.334,0,0,0,1.313,1.111,1.3,1.3,0,0,0,.225-.019A1.334,1.334,0,0,0,3.192,247.67Z" transform="translate(0 -238.682)"/>
      </g>
    </g>
    <g id="Group_387" data-name="Group 387" transform="translate(2.653 52.821)">
      <g id="Group_386" data-name="Group 386">
        <path id="Path_374" data-name="Path 374" class="cls-1" d="M23.048,345.406a37.293,37.293,0,0,1-3.495-6.773,1.333,1.333,0,0,0-2.483.973,40.01,40.01,0,0,0,3.744,7.257,1.333,1.333,0,1,0,2.233-1.457Z" transform="translate(-16.978 -337.786)"/>
      </g>
    </g>
    <g id="Group_389" data-name="Group 389" transform="translate(1.1 22.082)">
      <g id="Group_388" data-name="Group 388">
        <path id="Path_375" data-name="Path 375" class="cls-1" d="M11.6,141.19a1.335,1.335,0,0,0-1.777.629,39.765,39.765,0,0,0-2.743,7.695,1.333,1.333,0,0,0,.979,1.612,1.375,1.375,0,0,0,.317.037,1.336,1.336,0,0,0,1.295-1.017,37.123,37.123,0,0,1,2.559-7.179A1.332,1.332,0,0,0,11.6,141.19Z" transform="translate(-7.041 -141.06)"/>
      </g>
    </g>
    <g id="Group_391" data-name="Group 391" transform="translate(7.861 9.574)">
      <g id="Group_390" data-name="Group 390">
        <path id="Path_376" data-name="Path 376" class="cls-1" d="M58.041,61.469a1.333,1.333,0,0,0-1.881-.128,40.371,40.371,0,0,0-5.575,5.967,1.333,1.333,0,1,0,2.123,1.613,37.577,37.577,0,0,1,5.206-5.571A1.334,1.334,0,0,0,58.041,61.469Z" transform="translate(-50.313 -61.011)"/>
      </g>
    </g>
    <g id="Group_393" data-name="Group 393" transform="translate(24.337 74.642)">
      <g id="Group_392" data-name="Group 392">
        <path id="Path_377" data-name="Path 377" class="cls-1" d="M164.912,479.618a37.225,37.225,0,0,1-7.329-2.083,1.333,1.333,0,1,0-.989,2.476,39.792,39.792,0,0,0,7.856,2.232,1.37,1.37,0,0,0,.232.02,1.333,1.333,0,0,0,.231-2.645Z" transform="translate(-155.754 -477.44)"/>
      </g>
    </g>
    <g id="Group_395" data-name="Group 395" transform="translate(39.804 76.339)">
      <g id="Group_394" data-name="Group 394">
        <path id="Path_378" data-name="Path 378" class="cls-1" d="M265.2,489.327a1.336,1.336,0,0,0-1.605-.989,37.413,37.413,0,0,1-7.559.993,1.333,1.333,0,0,0,.037,2.665h.04a40.116,40.116,0,0,0,8.1-1.063A1.335,1.335,0,0,0,265.2,489.327Z" transform="translate(-254.742 -488.302)"/>
      </g>
    </g>
    <g id="Group_397" data-name="Group 397" transform="translate(19.696 1.861)">
      <g id="Group_396" data-name="Group 396">
        <path id="Path_379" data-name="Path 379" class="cls-1" d="M135.894,12.576a1.335,1.335,0,0,0-1.675-.867,39.854,39.854,0,0,0-7.489,3.264A1.333,1.333,0,0,0,128.04,17.3a37.107,37.107,0,0,1,6.987-3.045A1.334,1.334,0,0,0,135.894,12.576Z" transform="translate(-126.052 -11.647)"/>
      </g>
    </g>
    <g id="Group_399" data-name="Group 399" transform="translate(11.241 65.971)">
      <g id="Group_398" data-name="Group 398">
        <path id="Path_380" data-name="Path 380" class="cls-1" d="M80.112,427.173a37.569,37.569,0,0,1-5.895-4.833,1.334,1.334,0,1,0-1.891,1.881A40.355,40.355,0,0,0,78.64,429.4a1.334,1.334,0,0,0,1.472-2.225Z" transform="translate(-71.94 -421.947)"/>
      </g>
    </g>
    <g id="Group_401" data-name="Group 401" transform="translate(55.145 71.813)">
      <g id="Group_400" data-name="Group 400">
        <path id="Path_381" data-name="Path 381" class="cls-1" d="M358.92,459.98a1.334,1.334,0,0,0-1.832-.449,37.455,37.455,0,0,1-3.4,1.825,1.334,1.334,0,1,0,1.139,2.412,39.866,39.866,0,0,0,3.644-1.956A1.335,1.335,0,0,0,358.92,459.98Z" transform="translate(-352.923 -459.337)"/>
      </g>
    </g>
    <g id="Group_403" data-name="Group 403" transform="translate(65.334 58.715)">
      <g id="Group_402" data-name="Group 402">
        <path id="Path_382" data-name="Path 382" class="cls-1" d="M432.52,376.024a1.332,1.332,0,0,0-1.871-.235l-12,9.333a1.337,1.337,0,0,0-.515,1.053v4a1.333,1.333,0,1,0,2.667,0v-3.348l11.484-8.933A1.333,1.333,0,0,0,432.52,376.024Z" transform="translate(-418.134 -375.508)"/>
      </g>
    </g>
    <g id="Group_405" data-name="Group 405" transform="translate(61.334 66.714)">
      <g id="Group_404" data-name="Group 404">
        <path id="Path_383" data-name="Path 383" class="cls-1" d="M398.291,428.107l-4-1.333a1.333,1.333,0,0,0-.844,2.529l4,1.333a1.333,1.333,0,1,0,.844-2.529Z" transform="translate(-392.535 -426.704)"/>
      </g>
    </g>
    <g id="Group_407" data-name="Group 407" transform="translate(65.333 58.714)">
      <g id="Group_406" data-name="Group 406">
        <path id="Path_384" data-name="Path 384" class="cls-1" d="M430.031,387.007l-2.667-6.667a1.332,1.332,0,0,0-.552-.648l-6.667-4a1.333,1.333,0,1,0-1.372,2.287l6.281,3.769,2.5,6.251a1.335,1.335,0,0,0,1.239.839,1.292,1.292,0,0,0,.495-.1A1.333,1.333,0,0,0,430.031,387.007Z" transform="translate(-418.126 -375.502)"/>
      </g>
    </g>
  </g>
</svg>
