<svg xmlns="http://www.w3.org/2000/svg" viewBox="5401 3573.693 82.288 82.284">
  <defs>
    <style>
      .cls-1 {
        fill: #009ae9;
      }
    </style>
  </defs>
  <g id="credit-card_5_" data-name="credit-card (5)" transform="translate(5401 3573.682)">
    <g id="Group_411" data-name="Group 411" transform="translate(0 0.011)">
      <g id="Group_410" data-name="Group 410" transform="translate(0 0)">
        <path id="Path_389" data-name="Path 389" class="cls-1" d="M80.1,28.248,54.047,2.192a7.487,7.487,0,0,0-10.564,0l-41.3,41.3a7.486,7.486,0,0,0,0,10.564l3.213,3.213h0L26.99,78.866H24a1.714,1.714,0,0,0,0,3.428H58.285a1.714,1.714,0,1,0,0-3.428H40.049L80.1,38.812A7.478,7.478,0,0,0,80.1,28.248Zm-2.424,8.139-41.3,41.3a4.012,4.012,0,0,1-2.851,1.176h-.013a4.01,4.01,0,0,1-2.851-1.176L9.032,56.059,48.7,16.394a1.714,1.714,0,1,0-2.424-2.424L6.607,53.635l-2-2a4.058,4.058,0,0,1,0-5.715l41.3-41.3a4.059,4.059,0,0,1,5.715,0L60.9,13.89,21.232,53.556a1.714,1.714,0,1,0,2.424,2.424L63.321,16.315,77.679,30.673A4.046,4.046,0,0,1,77.679,36.388Z" transform="translate(0 -0.011)"/>
        <path id="Path_390" data-name="Path 390" class="cls-1" d="M177.074,305.443a1.715,1.715,0,0,0-2.424,0l-13.49,13.49a1.714,1.714,0,1,0,2.424,2.424l13.49-13.49A1.714,1.714,0,0,0,177.074,305.443Z" transform="translate(-134.837 -255.933)"/>
        <path id="Path_391" data-name="Path 391" class="cls-1" d="M196.861,385.119l-5.533,5.533a1.714,1.714,0,1,0,2.424,2.424l5.533-5.533a1.714,1.714,0,0,0-2.424-2.424Z" transform="translate(-160.157 -322.803)"/>
        <path id="Path_392" data-name="Path 392" class="cls-1" d="M253.634,353.444l-.727.727a1.714,1.714,0,1,0,2.424,2.424l.727-.727a1.714,1.714,0,0,0-2.424-2.424Z" transform="translate(-211.838 -296.219)"/>
        <path id="Path_393" data-name="Path 393" class="cls-1" d="M353.81,161.171a1.714,1.714,0,0,0-2.424,0l-7.273,7.273a1.714,1.714,0,0,0,0,2.424l4.849,4.848a1.714,1.714,0,0,0,2.424,0l7.273-7.273a1.714,1.714,0,0,0,0-2.424Zm-3.637,10.91-2.424-2.424,4.849-4.849,2.424,2.424Z" transform="translate(-288.385 -134.848)"/>
        <path id="Path_394" data-name="Path 394" class="cls-1" d="M311.387,58.483a1.708,1.708,0,0,0,1.212-.5l.727-.728a1.714,1.714,0,0,0-2.425-2.424l-.727.728a1.714,1.714,0,0,0,1.212,2.926Z" transform="translate(-259.903 -45.597)"/>
        <path id="Path_395" data-name="Path 395" class="cls-1" d="M100.8,355.435l-.727.727a1.714,1.714,0,0,0,2.424,2.424l.727-.727a1.714,1.714,0,1,0-2.424-2.424Z" transform="translate(-83.564 -297.89)"/>
      </g>
    </g>
  </g>
</svg>
