<svg xmlns="http://www.w3.org/2000/svg" viewBox="4403 3870 68.025 68.002">
  <defs>
    <style>
      .cls-1 {
        fill: #009ae9;
      }
    </style>
  </defs>
  <path id="user_11_" data-name="user (11)" class="cls-1" d="M58.067,10A34.015,34.015,0,0,0,2.018,45.6a1.384,1.384,0,0,0,2.6-.939A31.246,31.246,0,1,1,56.663,55.567l-.2.211c-.117.125-.233.25-.355.372a31.283,31.283,0,0,1-44.191,0c-.065-.065-.128-.131-.191-.2,0-.128-.006-.254-.006-.378q0-.418.015-.833c0-.093.01-.184.015-.276.009-.184.018-.368.031-.551.008-.109.02-.217.03-.326.015-.165.028-.33.046-.494.013-.116.029-.231.044-.346.02-.156.038-.312.061-.467.018-.118.038-.235.058-.353.025-.151.049-.3.077-.452.022-.119.047-.237.071-.355.03-.147.059-.3.092-.442.027-.119.056-.237.084-.355.035-.144.069-.288.106-.431.031-.119.065-.236.1-.354.039-.141.079-.283.121-.423.035-.118.073-.234.111-.351.044-.139.089-.278.135-.415.04-.116.081-.231.123-.347.049-.137.1-.273.15-.409.044-.115.089-.228.135-.342.054-.134.108-.268.164-.4.048-.113.1-.225.147-.337.058-.132.117-.263.178-.393q.078-.166.159-.331.095-.194.193-.387.083-.163.17-.324.1-.191.207-.38.089-.159.18-.317.109-.187.221-.373.094-.156.191-.31.116-.183.235-.365.1-.152.2-.3c.081-.12.165-.239.249-.357.07-.1.14-.2.211-.294.086-.117.174-.233.262-.349.073-.1.146-.191.221-.285.091-.115.183-.228.276-.341.076-.092.152-.185.229-.276.1-.112.193-.223.291-.333.079-.089.157-.178.238-.266.1-.109.2-.217.3-.324.082-.086.163-.172.246-.257.1-.107.212-.211.319-.316.084-.082.167-.165.253-.246.11-.1.223-.206.335-.308.086-.078.171-.156.258-.233.116-.1.235-.2.353-.3.087-.073.173-.147.261-.219.123-.1.248-.2.373-.3.087-.068.173-.138.261-.2.132-.1.266-.2.4-.293.085-.061.168-.124.254-.184.148-.1.3-.2.451-.305.075-.05.147-.1.222-.15.2-.128.4-.252.6-.374l.093-.058q.35-.21.71-.407c.082-.045.166-.087.249-.131.159-.085.318-.171.479-.252.1-.052.21-.1.314-.152.132-.064.264-.129.4-.19a13.474,13.474,0,0,0,18.663,0A22.545,22.545,0,0,1,54.43,46.611,1.384,1.384,0,1,0,56.964,45.5,24.959,24.959,0,0,0,45.192,33.151,13.507,13.507,0,0,0,34.014,12.037a1.384,1.384,0,0,0,0,2.769,10.74,10.74,0,0,1,7.98,17.944h0a10.713,10.713,0,0,1-15.959,0h0a10.729,10.729,0,0,1,.417-14.834A1.385,1.385,0,0,0,24.5,15.947a13.494,13.494,0,0,0-1.671,17.2l-.04.021c-.108.054-.213.111-.321.166-.164.085-.329.169-.49.258-.114.062-.226.128-.34.192-.151.086-.3.171-.452.259-.116.069-.229.14-.344.21-.143.088-.286.176-.427.267-.115.074-.228.15-.342.226-.137.091-.273.183-.408.276-.113.079-.225.159-.337.24-.132.095-.263.19-.392.287-.111.083-.221.168-.33.253q-.19.148-.377.3-.162.131-.322.264-.184.154-.365.311-.157.136-.311.275-.178.16-.353.324c-.1.094-.2.188-.3.284-.115.111-.228.224-.341.337-.1.1-.193.193-.288.291-.112.116-.222.234-.331.352-.092.1-.184.2-.274.3-.11.122-.216.246-.323.37-.086.1-.173.2-.257.3-.109.13-.214.262-.32.394-.079.1-.159.2-.236.295-.111.143-.219.289-.327.434-.068.091-.138.181-.2.273-.137.189-.269.381-.4.574-.034.051-.071.1-.1.151q-.245.365-.476.739c-.053.086-.1.174-.156.261-.1.166-.2.332-.3.5-.06.1-.117.212-.175.318-.084.152-.169.3-.25.458-.06.114-.117.23-.175.345-.075.149-.151.3-.223.447-.057.12-.112.24-.168.361-.068.148-.137.3-.2.446-.054.123-.106.248-.158.372-.063.149-.125.3-.184.449-.05.126-.1.254-.146.381-.057.151-.113.3-.167.454-.046.129-.09.259-.134.389q-.077.229-.15.459-.062.2-.12.394-.069.233-.134.467-.055.2-.107.4c-.041.158-.08.317-.117.476-.032.133-.063.266-.092.4-.036.161-.069.323-.1.486-.027.133-.054.266-.078.4-.03.166-.057.332-.084.5-.021.132-.044.263-.063.395-.025.172-.046.345-.068.518-.016.128-.033.256-.048.385-.02.181-.035.364-.051.546-.011.122-.023.243-.032.365-.015.2-.024.408-.034.613,0,.1-.012.2-.016.3q-.017.461-.017.926c0,.334.011.65.025,1a1.414,1.414,0,0,0,.031.236c0,.006,0,.012,0,.018a1.365,1.365,0,0,0,.07.218l.008.021a1.377,1.377,0,0,0,.105.2l.015.023a1.409,1.409,0,0,0,.137.174l.01.013.183.195c.138.148.276.295.42.439a34.055,34.055,0,0,0,48.107,0c.144-.144.282-.291.42-.439l.183-.195A34.011,34.011,0,0,0,58.067,10Z" transform="translate(4403 3869.946)"/>
</svg>
