<svg xmlns="http://www.w3.org/2000/svg" viewBox="5072.992 3877 55.008 60.01">
  <defs>
    <style>
      .cls-1 {
        fill: #009ae9;
      }
    </style>
  </defs>
  <g id="invoice" transform="translate(5052.987 3877)">
    <g id="Group_413" data-name="Group 413" transform="translate(20.005)">
      <g id="Group_412" data-name="Group 412">
        <path id="Path_407" data-name="Path 407" class="cls-1" d="M68.012,0H28.006a8.01,8.01,0,0,0-8,8v7a1,1,0,0,0,1.515.857l4.486-2.691,4.486,2.691a1,1,0,0,0,1.115-.057l2.4-1.8V59.008a1,1,0,0,0,1.625.78l4.376-3.5,4.376,3.5a1,1,0,0,0,1.25,0l4.376-3.5,4.376,3.5a1,1,0,0,0,1.25,0l4.376-3.5,4.376,3.5a1,1,0,0,0,1.332-.074l3.367-3.367,4.3,3.441a1,1,0,0,0,1.626-.781V7A7.009,7.009,0,0,0,68.012,0Zm-34,11.5-3.062,2.3-4.424-2.653a1,1,0,0,0-1.03,0l-3.485,2.087V8a6,6,0,0,1,12,0ZM73.012,56.927l-3.375-2.7A1,1,0,0,0,68.3,54.3l-3.367,3.367-4.3-3.441a1,1,0,0,0-1.25,0l-4.377,3.5-4.376-3.5a1,1,0,0,0-1.25,0l-4.376,3.5-4.376-3.5a1,1,0,0,0-1.25,0l-3.375,2.7V8a7.985,7.985,0,0,0-2.714-6H68.012a5.007,5.007,0,0,1,5,5Z" transform="translate(-20.005)"/>
      </g>
    </g>
    <g id="Group_415" data-name="Group 415" transform="translate(56.01 48.007)">
      <g id="Group_414" data-name="Group 414">
        <rect id="Rectangle_127" data-name="Rectangle 127" class="cls-1" width="14.002" height="2"/>
      </g>
    </g>
    <g id="Group_417" data-name="Group 417" transform="translate(56.01 44.006)">
      <g id="Group_416" data-name="Group 416">
        <rect id="Rectangle_128" data-name="Rectangle 128" class="cls-1" width="14.002" height="2"/>
      </g>
    </g>
    <g id="Group_419" data-name="Group 419" transform="translate(38.008 8.001)">
      <g id="Group_418" data-name="Group 418">
        <rect id="Rectangle_129" data-name="Rectangle 129" class="cls-1" width="21.003" height="2"/>
      </g>
    </g>
    <g id="Group_421" data-name="Group 421" transform="translate(38.008 12.002)">
      <g id="Group_420" data-name="Group 420">
        <rect id="Rectangle_130" data-name="Rectangle 130" class="cls-1" width="21.003" height="2"/>
      </g>
    </g>
    <g id="Group_423" data-name="Group 423" transform="translate(38.008 16.002)">
      <g id="Group_422" data-name="Group 422">
        <rect id="Rectangle_131" data-name="Rectangle 131" class="cls-1" width="12.002" height="2"/>
      </g>
    </g>
    <g id="Group_425" data-name="Group 425" transform="translate(67.012 16.002)">
      <g id="Group_424" data-name="Group 424">
        <rect id="Rectangle_132" data-name="Rectangle 132" class="cls-1" width="4.001" height="2"/>
      </g>
    </g>
    <g id="Group_427" data-name="Group 427" transform="translate(67.012 8.001)">
      <g id="Group_426" data-name="Group 426">
        <rect id="Rectangle_133" data-name="Rectangle 133" class="cls-1" width="4.001" height="2"/>
      </g>
    </g>
    <g id="Group_429" data-name="Group 429" transform="translate(67.012 12.002)">
      <g id="Group_428" data-name="Group 428">
        <rect id="Rectangle_134" data-name="Rectangle 134" class="cls-1" width="4.001" height="2"/>
      </g>
    </g>
    <g id="Group_431" data-name="Group 431" transform="translate(38.008 24.003)">
      <g id="Group_430" data-name="Group 430">
        <rect id="Rectangle_135" data-name="Rectangle 135" class="cls-1" width="21.003" height="2"/>
      </g>
    </g>
    <g id="Group_433" data-name="Group 433" transform="translate(38.008 28.004)">
      <g id="Group_432" data-name="Group 432">
        <rect id="Rectangle_136" data-name="Rectangle 136" class="cls-1" width="21.003" height="2"/>
      </g>
    </g>
    <g id="Group_435" data-name="Group 435" transform="translate(38.008 32.005)">
      <g id="Group_434" data-name="Group 434">
        <rect id="Rectangle_137" data-name="Rectangle 137" class="cls-1" width="21.003" height="2"/>
      </g>
    </g>
    <g id="Group_437" data-name="Group 437" transform="translate(38.008 36.005)">
      <g id="Group_436" data-name="Group 436">
        <rect id="Rectangle_138" data-name="Rectangle 138" class="cls-1" width="9.001" height="2"/>
      </g>
    </g>
    <g id="Group_439" data-name="Group 439" transform="translate(67.012 24.003)">
      <g id="Group_438" data-name="Group 438">
        <rect id="Rectangle_139" data-name="Rectangle 139" class="cls-1" width="4.001" height="2"/>
      </g>
    </g>
    <g id="Group_441" data-name="Group 441" transform="translate(67.012 28.004)">
      <g id="Group_440" data-name="Group 440">
        <rect id="Rectangle_140" data-name="Rectangle 140" class="cls-1" width="4.001" height="2"/>
      </g>
    </g>
    <g id="Group_443" data-name="Group 443" transform="translate(67.012 32.005)">
      <g id="Group_442" data-name="Group 442">
        <rect id="Rectangle_141" data-name="Rectangle 141" class="cls-1" width="4.001" height="2"/>
      </g>
    </g>
  </g>
</svg>
