<svg xmlns="http://www.w3.org/2000/svg" viewBox="5416.306 3866.704 56.857 70.296">
  <defs>
    <style>
      .cls-1 {
        fill: #009ae9;
      }
    </style>
  </defs>
  <g id="taxi-driver" transform="translate(5367.363 3866.704)">
    <g id="Group_445" data-name="Group 445" transform="translate(75.029 33.915)">
      <g id="Group_444" data-name="Group 444">
        <path id="Path_408" data-name="Path 408" class="cls-1" d="M242.452,247.017h-2.343a1.172,1.172,0,0,0,0,2.343h2.343a1.172,1.172,0,0,0,0-2.343Z" transform="translate(-238.937 -247.017)"/>
      </g>
    </g>
    <g id="Group_447" data-name="Group 447" transform="translate(73.857 38.601)">
      <g id="Group_446" data-name="Group 446">
        <path id="Path_409" data-name="Path 409" class="cls-1" d="M236.263,281.15h-4.686a1.172,1.172,0,0,0,0,2.343h4.686a1.172,1.172,0,0,0,0-2.343Z" transform="translate(-230.405 -281.15)"/>
      </g>
    </g>
    <g id="Group_449" data-name="Group 449" transform="translate(67.999 25.714)">
      <g id="Group_448" data-name="Group 448">
        <path id="Path_410" data-name="Path 410" class="cls-1" d="M193.6,187.283H188.91a1.172,1.172,0,0,0,0,2.343h1.172V190.8a1.172,1.172,0,0,0,2.343,0v-1.172H193.6a1.172,1.172,0,0,0,0-2.343Z" transform="translate(-187.738 -187.283)"/>
      </g>
    </g>
    <g id="Group_451" data-name="Group 451" transform="translate(79.715 25.714)">
      <g id="Group_450" data-name="Group 450">
        <path id="Path_411" data-name="Path 411" class="cls-1" d="M278.929,187.283h-4.686a1.172,1.172,0,0,0,0,2.343h1.172V190.8a1.172,1.172,0,0,0,2.343,0v-1.172h1.172a1.172,1.172,0,0,0,0-2.343Z" transform="translate(-273.071 -187.283)"/>
      </g>
    </g>
    <g id="Group_453" data-name="Group 453" transform="translate(48.943)">
      <g id="Group_452" data-name="Group 452">
        <path id="Path_412" data-name="Path 412" class="cls-1" d="M105.634,65.651l-1.565-4.881a14.34,14.34,0,0,0-3.276-5.088,28.908,28.908,0,0,0-3.062-2.315l-.11-.071a12.682,12.682,0,0,0-1.471-.722,14.429,14.429,0,0,0-5.4-1.079L86.892,47.64a25.482,25.482,0,0,1,.184-3.13,37.151,37.151,0,0,1,.626-3.692,9.912,9.912,0,0,0,2.549-5.748,2,2,0,0,0,.454.076,1.967,1.967,0,0,0,.628-.1c.6-.2,2.44-.813,2.44-8.157,0-.789,0-3.191-1.617-3.916a2.052,2.052,0,0,0-.822-.17,10.266,10.266,0,0,0-.213-3.9c3.216-2.066,5-4.768,5-7.662C96.118,4.936,87.883,0,77.372,0S58.626,4.936,58.626,11.237c0,2.893,1.779,5.595,4.992,7.665a10.3,10.3,0,0,0-.21,3.9,2.039,2.039,0,0,0-.823.17c-1.617.725-1.617,3.127-1.617,3.916,0,7.343,1.836,7.955,2.44,8.157a1.963,1.963,0,0,0,.628.1,2,2,0,0,0,.454-.076,9.91,9.91,0,0,0,2.549,5.748,36.957,36.957,0,0,1,.626,3.7,25.345,25.345,0,0,1,.184,3.123L64,51.5a14.436,14.436,0,0,0-5.4,1.08,12.74,12.74,0,0,0-1.468.721l-.11.071a29.083,29.083,0,0,0-3.058,2.311,14.273,14.273,0,0,0-3.3,5.145l-1.548,4.829a3.518,3.518,0,0,0,3.355,4.585h23.37a1.18,1.18,0,0,0,.366.058h2.343a1.065,1.065,0,0,0,.346-.058H102.28a3.517,3.517,0,0,0,3.353-4.587ZM88.536,52.6l-1.894,1.621a17.448,17.448,0,0,0-4.295-1.931l3.166-2.714Zm-9.091-.909a17.427,17.427,0,0,0-4.145,0l-5.11-4.382a28.085,28.085,0,0,0-.195-3.06c-.012-.11-.034-.224-.048-.334.708.657,1.458,1.322,2.3,2.007a8.134,8.134,0,0,0,10.242,0c.845-.684,1.6-1.35,2.3-2.008-.013.107-.034.219-.047.326a28.28,28.28,0,0,0-.195,3.067ZM91.189,25.152a4.155,4.155,0,0,1,.243,1.733c0,3.668-.51,5.31-.8,5.818a3.651,3.651,0,0,1-.5-.539,26.746,26.746,0,0,1,.669-6.784A1.682,1.682,0,0,1,91.189,25.152ZM60.97,11.237c0-4.82,7.511-8.893,16.4-8.893s16.4,4.073,16.4,8.893a5.642,5.642,0,0,1-1.508,3.649,1.36,1.36,0,0,0,.242-.381,1.1,1.1,0,0,0,0-.89,1.346,1.346,0,0,0-.246-.387,1.9,1.9,0,0,0-.176-.141.871.871,0,0,0-.21-.105.777.777,0,0,0-.21-.071,1.135,1.135,0,0,0-1.312.7,1.1,1.1,0,0,0,0,.89,1.362,1.362,0,0,0,.246.387,1.187,1.187,0,0,0,1.661,0,10.086,10.086,0,0,1-1.706,1.569,1.127,1.127,0,0,0-.295-.06H64.484a1.13,1.13,0,0,0-.3.06C62.106,14.929,60.97,13.106,60.97,11.237Zm27.217,7.509c-1.715,1.241-5.633,2.343-10.815,2.343s-9.106-1.1-10.817-2.343ZM64.616,32.164a3.647,3.647,0,0,1-.5.539c-.292-.508-.8-2.15-.8-5.818a4.159,4.159,0,0,1,.242-1.733,1.739,1.739,0,0,1,.393.231A26.726,26.726,0,0,1,64.616,32.164Zm2.211,2.828c0-.259.01-.518.031-.759a29.269,29.269,0,0,0-.89-10.53h0a9.178,9.178,0,0,1-.312-2.326c0-.141.022-.277.029-.416,2.495,1.534,6.769,2.47,11.687,2.47s9.193-.936,11.687-2.468c.007.139.029.275.029.415a9.139,9.139,0,0,1-.309,2.312,29.267,29.267,0,0,0-.894,10.535c.021.248.031.508.031.767,0,2.269-2.451,5.5-6.9,9.11a5.781,5.781,0,0,1-7.286,0C69.278,40.5,66.828,37.261,66.828,34.993Zm2.4,14.581L72.4,52.288A17.465,17.465,0,0,0,68.1,54.219L66.209,52.6ZM52.464,67.895a1.175,1.175,0,0,1-1.122-1.53l1.529-4.773a11.968,11.968,0,0,1,2.745-4.26c.1-.1.395-.342,2.72-2.029a10.528,10.528,0,0,1,1.143-.559,12.108,12.108,0,0,1,4.574-.908l2.079,1.779c-.411.343-.808.7-1.186,1.082a17.43,17.43,0,0,0-5.086,11.2H52.464Zm14.433,0a10.588,10.588,0,0,1,5.386-8.009c.26-.145.53-.27.8-.391h0l1.676,8.4Zm13.086,0,1.677-8.4c.273.122.544.248.807.394a10.586,10.586,0,0,1,5.38,8.006Zm10.215,0a12.922,12.922,0,0,0-6.6-10.057,12.458,12.458,0,0,0-2.484-1.048c-.019-.006-.038,0-.057-.005s-.034-.018-.054-.022a1.127,1.127,0,0,0-.185,0,1.162,1.162,0,0,0-.221,0,1.118,1.118,0,0,0-.226.071.769.769,0,0,0-.371.228,1.123,1.123,0,0,0-.151.151,1.155,1.155,0,0,0-.112.21,1.106,1.106,0,0,0-.081.153c-.006.019,0,.038-.005.057s-.018.034-.022.054L77.594,67.895H77.15L75.112,57.688c0-.02-.017-.034-.022-.054s0-.038-.005-.057A1.079,1.079,0,0,0,75,57.423a1.168,1.168,0,0,0-.111-.208,1.125,1.125,0,0,0-.155-.155.768.768,0,0,0-.371-.226,1.111,1.111,0,0,0-.222-.069,1.156,1.156,0,0,0-.22,0,1.089,1.089,0,0,0-.185,0c-.02,0-.035.017-.054.022s-.038,0-.057.005a12.452,12.452,0,0,0-2.478,1.045,12.923,12.923,0,0,0-6.6,10.06H62.189A15.115,15.115,0,0,1,66.6,58.354a15.658,15.658,0,0,1,2.058-1.731,15.294,15.294,0,0,1,17.423,0,15.62,15.62,0,0,1,2.061,1.732,15.115,15.115,0,0,1,4.412,9.541H90.2Zm13.031-.481a1.164,1.164,0,0,1-.95.481H94.886A17.429,17.429,0,0,0,89.8,56.7c-.378-.378-.775-.738-1.186-1.082l2.079-1.779a12.1,12.1,0,0,1,4.571.907,10.511,10.511,0,0,1,1.146.561c2.325,1.686,2.619,1.927,2.723,2.032a12.047,12.047,0,0,1,2.723,4.2l1.546,4.825A1.162,1.162,0,0,1,103.23,67.414Z" transform="translate(-48.943)"/>
      </g>
    </g>
    <g id="Group_455" data-name="Group 455" transform="translate(64.484 10.541)">
      <g id="Group_454" data-name="Group 454">
        <path id="Path_413" data-name="Path 413" class="cls-1" d="M164.138,77.12a1.219,1.219,0,0,0-.387-.246,1.07,1.07,0,0,0-.89,0,1.347,1.347,0,0,0-.387.246,1.228,1.228,0,0,0-.34.832.976.976,0,0,0,.094.445,1.359,1.359,0,0,0,.246.387,1.345,1.345,0,0,0,.387.246,1.159,1.159,0,0,0,1.277-.246,1.362,1.362,0,0,0,.246-.387,1.173,1.173,0,0,0,.094-.445A1.232,1.232,0,0,0,164.138,77.12Z" transform="translate(-162.134 -76.777)"/>
      </g>
    </g>
    <g id="Group_457" data-name="Group 457" transform="translate(69.171 10.544)">
      <g id="Group_456" data-name="Group 456">
        <path id="Path_414" data-name="Path 414" class="cls-1" d="M198.263,77.14a.73.73,0,0,0-.176-.141.641.641,0,0,0-.2-.105.729.729,0,0,0-.223-.071,1.17,1.17,0,0,0-1.054.317,1.228,1.228,0,0,0-.34.832,1.16,1.16,0,0,0,1.149,1.172h.023a1.18,1.18,0,0,0,1.172-1.172A1.193,1.193,0,0,0,198.263,77.14Z" transform="translate(-196.271 -76.8)"/>
      </g>
    </g>
    <g id="Group_459" data-name="Group 459" transform="translate(78.544 10.544)">
      <g id="Group_458" data-name="Group 458">
        <path id="Path_415" data-name="Path 415" class="cls-1" d="M266.54,77.14a1.147,1.147,0,0,0-.188-.141.641.641,0,0,0-.2-.105.729.729,0,0,0-.223-.071,1.17,1.17,0,0,0-1.054.317,1.228,1.228,0,0,0-.34.832,1.159,1.159,0,0,0,.34.832,1.343,1.343,0,0,0,.387.246,1.16,1.16,0,0,0,1.617-1.078A1.232,1.232,0,0,0,266.54,77.14Z" transform="translate(-264.537 -76.8)"/>
      </g>
    </g>
    <g id="Group_461" data-name="Group 461" transform="translate(73.857 10.538)">
      <g id="Group_460" data-name="Group 460">
        <path id="Path_416" data-name="Path 416" class="cls-1" d="M231.582,76.751a1.171,1.171,0,0,0-.839.347,1.188,1.188,0,0,0,0,1.664,1.177,1.177,0,0,0,2-.809c0-.008,0-.015,0-.023A1.172,1.172,0,0,0,231.582,76.751Z" transform="translate(-230.404 -76.751)"/>
      </g>
    </g>
    <g id="Group_463" data-name="Group 463" transform="translate(83.23 10.544)">
      <g id="Group_462" data-name="Group 462">
        <path id="Path_417" data-name="Path 417" class="cls-1" d="M300.673,77.135a1.184,1.184,0,0,0-1.066-.317.76.76,0,0,0-.21.071.868.868,0,0,0-.212.105,1.886,1.886,0,0,0-.175.141,1.228,1.228,0,0,0-.34.832,1.16,1.16,0,0,0,1.149,1.172h.023a1.173,1.173,0,0,0,.445-.094,1.362,1.362,0,0,0,.387-.246,1.184,1.184,0,0,0,.34-.832A1.233,1.233,0,0,0,300.673,77.135Z" transform="translate(-298.67 -76.795)"/>
      </g>
    </g>
    <g id="Group_465" data-name="Group 465" transform="translate(87.916 10.538)">
      <g id="Group_464" data-name="Group 464">
        <path id="Path_418" data-name="Path 418" class="cls-1" d="M333.982,76.751a1.171,1.171,0,0,0-.839.347,1.2,1.2,0,0,0-.34.832,1.16,1.16,0,0,0,.34.832,1.342,1.342,0,0,0,.387.246,1.16,1.16,0,0,0,1.617-1.055v-.023A1.172,1.172,0,0,0,333.982,76.751Z" transform="translate(-332.804 -76.751)"/>
      </g>
    </g>
    <g id="Group_467" data-name="Group 467" transform="translate(62.141 12.886)">
      <g id="Group_466" data-name="Group 466">
        <path id="Path_419" data-name="Path 419" class="cls-1" d="M147.063,94.2a1.153,1.153,0,0,0-1.055-.317.76.76,0,0,0-.21.071.869.869,0,0,0-.212.105,1.875,1.875,0,0,0-.175.141,1.206,1.206,0,0,0-.246.387,1.173,1.173,0,0,0-.094.445A1.16,1.16,0,0,0,146.22,96.2h.023a1.18,1.18,0,0,0,1.172-1.172A1.193,1.193,0,0,0,147.063,94.2Z" transform="translate(-145.071 -93.855)"/>
      </g>
    </g>
    <g id="Group_469" data-name="Group 469" transform="translate(66.827 12.902)">
      <g id="Group_468" data-name="Group 468">
        <path id="Path_420" data-name="Path 420" class="cls-1" d="M181.45,94.684a1.346,1.346,0,0,0-.246-.387,1.226,1.226,0,0,0-1.664,0,1.206,1.206,0,0,0-.246.387.975.975,0,0,0-.094.445,1.172,1.172,0,1,0,2.249-.445Z" transform="translate(-179.2 -93.972)"/>
      </g>
    </g>
    <g id="Group_471" data-name="Group 471" transform="translate(71.514 12.888)">
      <g id="Group_470" data-name="Group 470">
        <path id="Path_421" data-name="Path 421" class="cls-1" d="M215.34,94.211a1.145,1.145,0,0,0-.188-.141.641.641,0,0,0-.2-.105.729.729,0,0,0-.223-.071,1.18,1.18,0,0,0-1.054.317,1.207,1.207,0,0,0-.246.387,1.173,1.173,0,0,0-.094.445,1.16,1.16,0,0,0,.34.832,1.172,1.172,0,0,0,2-.832A1.233,1.233,0,0,0,215.34,94.211Z" transform="translate(-213.337 -93.872)"/>
      </g>
    </g>
    <g id="Group_473" data-name="Group 473" transform="translate(76.2 12.889)">
      <g id="Group_472" data-name="Group 472">
        <path id="Path_422" data-name="Path 422" class="cls-1" d="M249.718,94.6a1.346,1.346,0,0,0-.246-.387,1.362,1.362,0,0,0-.387-.246,1.169,1.169,0,0,0-1.277.246,1.206,1.206,0,0,0-.246.387.973.973,0,0,0-.094.445,1.171,1.171,0,1,0,2.249-.445Z" transform="translate(-247.468 -93.879)"/>
      </g>
    </g>
    <g id="Group_475" data-name="Group 475" transform="translate(80.887 12.888)">
      <g id="Group_474" data-name="Group 474">
        <path id="Path_423" data-name="Path 423" class="cls-1" d="M282.776,93.867a1.171,1.171,0,0,0-1.172,1.172,1.159,1.159,0,0,0,.34.832,1.174,1.174,0,1,0,.832-2Z" transform="translate(-281.605 -93.867)"/>
      </g>
    </g>
    <g id="Group_477" data-name="Group 477" transform="translate(85.573 12.881)">
      <g id="Group_476" data-name="Group 476">
        <path id="Path_424" data-name="Path 424" class="cls-1" d="M316.916,93.817a1.171,1.171,0,0,0-.839.347,1.2,1.2,0,0,0-.34.832,1.159,1.159,0,0,0,.34.832,1.176,1.176,0,1,0,.839-2.01Z" transform="translate(-315.738 -93.817)"/>
      </g>
    </g>
  </g>
</svg>
