<svg xmlns="http://www.w3.org/2000/svg" viewBox="4403.603 4159.578 69.422 69.422">
  <defs>
    <style>
      .cls-1 {
        fill: #009ae9;
      }
    </style>
  </defs>
  <g id="team" transform="translate(4403.603 4159.578)">
    <g id="Group_478" data-name="Group 478">
      <path id="Path_425" data-name="Path 425" class="cls-1" d="M61.678,58.358,60.538,57.9A34.712,34.712,0,0,0,63.41,15.184a1.086,1.086,0,0,0-.173-.249,34.807,34.807,0,0,0-6.048-6.675,1.1,1.1,0,0,0-1.42,1.67,32.64,32.64,0,0,1,4.961,5.275,48.352,48.352,0,0,1-8.214,2.282,39.16,39.16,0,0,0-3.153-7.093,25.109,25.109,0,0,0-5.689-6.952,32.328,32.328,0,0,1,9.218,4.3,1.1,1.1,0,0,0,1.227-1.817A34.712,34.712,0,0,0,8.9,57.915l-1.126.441A6.227,6.227,0,0,0,3.83,64.4v3.928a1.1,1.1,0,0,0,1.1,1.1H21.061a1.088,1.088,0,0,0,.155-.012,1.089,1.089,0,0,0,.155.012h4.46a1.1,1.1,0,1,0,0-2.192H22.467V63.412a5.358,5.358,0,0,1,3.291-5.231l.051-.018,5.338-2.091c.012.012.022.025.035.037l2.837,2.763a1.1,1.1,0,0,0,.765.311H34.8a1.1,1.1,0,0,0,.772-.335L38.3,56.022l5.331,2.138.052.019a5.358,5.358,0,0,1,3.3,5.233V67.23H29.257a1.1,1.1,0,1,0,0,2.192H64.519a1.1,1.1,0,0,0,1.1-1.1V64.4A6.227,6.227,0,0,0,61.678,58.358Zm-3.317-1.33-1.081-.433v-.624a5.732,5.732,0,0,0,2.548-3.16,3.1,3.1,0,0,0,1.712-5.489V45.374a7.4,7.4,0,0,0-6.451-7.325c.041-.743.07-1.492.084-2.242H67.209A32.365,32.365,0,0,1,58.362,57.028ZM54.4,54.56h-1a3.516,3.516,0,0,1-3.513-3.512v-2.9h0A11.332,11.332,0,0,0,55.8,45.866,4.93,4.93,0,0,0,57.917,47.9v3.151A3.517,3.517,0,0,1,54.4,54.56Zm.685,2.15v.608l-1.221,1.267L52.72,57.467V56.71a5.735,5.735,0,0,0,.685.043h1A5.706,5.706,0,0,0,55.089,56.71ZM48.8,46.027h0c-.038,0-.075,0-.112.006l-.035.005c-.025,0-.049.006-.073.011l-.049.012-.056.015-.035.013v-.714A5.2,5.2,0,0,1,53.63,40.18h.524a5.2,5.2,0,0,1,5.194,5.195v.705c-.021-.007-.041-.012-.063-.017l-.03-.009c-1.528-.348-2.028-2.387-2.032-2.4a1.1,1.1,0,0,0-1.957-.4C53.282,46,48.857,46.027,48.8,46.027Zm11.31,4.435V48.985a.9.9,0,0,1,0,1.477ZM62.016,17.05a32.461,32.461,0,0,1,5.193,16.565H55.173a55.328,55.328,0,0,0-2.008-14.027A48.914,48.914,0,0,0,62.016,17.05ZM52.981,33.615H41.758a8.946,8.946,0,0,0-5.951-2.927V21.262A98.83,98.83,0,0,0,51,19.984,52.994,52.994,0,0,1,52.981,33.615ZM43.311,45.061a1.411,1.411,0,0,1-1.028,1.355V43.705A1.412,1.412,0,0,1,43.311,45.061Zm-7.5-42.808c4.362.466,8.466,3.7,11.656,9.236a36.763,36.763,0,0,1,2.873,6.388,97.131,97.131,0,0,1-14.529,1.192V2.253Zm-.7,30.6a6.779,6.779,0,0,1,6.771,6.772v1.339l-.023-.017-.049-.036-.039-.026-.05-.03-.048-.025-.046-.022-.059-.023-.041-.015c-.022-.007-.045-.013-.068-.019l-.03-.009c-2.082-.473-2.742-3.188-2.747-3.212a1.1,1.1,0,0,0-1.957-.4c-2.567,3.549-8.237,3.585-8.312,3.585h0c-.038,0-.075,0-.112.006l-.034.005c-.025,0-.05.006-.074.011l-.046.012-.058.015-.052.019-.048.017c-.02.009-.039.019-.058.028l-.037.018c-.02.011-.038.023-.057.034l-.033.02c-.018.012-.034.025-.051.038l-.033.025-.029.026V39.622a6.779,6.779,0,0,1,6.771-6.771h.656Zm-18.671.764a53,53,0,0,1,1.98-13.634,98.934,98.934,0,0,0,15.194,1.281V30.7A8.949,8.949,0,0,0,27.8,33.622a1.122,1.122,0,0,0-.121-.007H16.441ZM27.314,43.694v2.734a1.408,1.408,0,0,1,0-2.734Zm6.3-41.441V19.069a97.188,97.188,0,0,1-14.528-1.2,36.778,36.778,0,0,1,2.872-6.385C25.149,5.956,29.253,2.719,33.615,2.253Zm-7.878,1.2a25.128,25.128,0,0,0-5.677,6.942,39.158,39.158,0,0,0-3.152,7.09,48.454,48.454,0,0,1-8.2-2.275A32.627,32.627,0,0,1,25.737,3.452ZM7.415,17.055a49.017,49.017,0,0,0,8.842,2.53,55.322,55.322,0,0,0-2.009,14.029H2.213A32.315,32.315,0,0,1,7.415,17.055ZM14.479,56.71a5.735,5.735,0,0,0,.685.042h1a5.7,5.7,0,0,0,.684-.043v.608l-1.221,1.267-1.148-1.118V56.71Zm1.685-2.15h-1a3.516,3.516,0,0,1-3.513-3.512v-2.9a11.327,11.327,0,0,0,5.906-2.283A4.931,4.931,0,0,0,19.676,47.9v3.15A3.516,3.516,0,0,1,16.163,54.56Zm2.82-10.909a1.1,1.1,0,0,0-1.957-.4C15.04,46,10.612,46.027,10.558,46.027h0c-.038,0-.075,0-.112.006l-.034.005c-.025,0-.05.006-.074.011l-.046.012-.058.015-.035.013v-.714a5.2,5.2,0,0,1,5.195-5.195h.524a5.2,5.2,0,0,1,5.194,5.195v.706h0c-.021-.007-.043-.012-.064-.018l-.029-.008C19.487,45.707,18.987,43.667,18.984,43.651ZM2.213,35.807H14.248c.014.755.043,1.509.084,2.257A7.4,7.4,0,0,0,8,45.374v1.94a3.1,3.1,0,0,0,1.737,5.5,5.73,5.73,0,0,0,2.547,3.158v.617l-1.2.469A32.351,32.351,0,0,1,2.213,35.807ZM9.458,48.96v1.526a.905.905,0,0,1,0-1.526ZM20.275,63.412V67.23H6.022V64.4A4.076,4.076,0,0,1,8.5,60.422l.051-.018,4.134-1.619,2.2,2.14a1.1,1.1,0,0,0,.765.311h.017a1.094,1.094,0,0,0,.772-.335l2.075-2.153,2.565,1.028A8.186,8.186,0,0,0,20.275,63.412Zm10.576-9.578-5.818,2.278a6.989,6.989,0,0,0-2.676,1.813l-3.317-1.33v-.623a5.731,5.731,0,0,0,2.548-3.16A3.1,3.1,0,0,0,23.3,47.322V45.374a7.4,7.4,0,0,0-6.774-7.36c-.042-.731-.071-1.469-.085-2.208h9.906a8.907,8.907,0,0,0-.855,3.815V42.18a3.6,3.6,0,0,0,2.1,6.482,6.89,6.89,0,0,0,3.254,4.054v1.118Zm-8.983-3.372V48.984a.9.9,0,0,1,0,1.478ZM36.555,54.6v.071l-1.8,1.864-1.716-1.672V53.482a6.865,6.865,0,0,0,1.131.095h1.25a6.893,6.893,0,0,0,1.131-.095Zm-1.131-3.214h-1.25a4.673,4.673,0,0,1-4.668-4.668v-3.87a13.8,13.8,0,0,0,7.735-3.037,5.975,5.975,0,0,0,2.85,2.789v4.119A4.673,4.673,0,0,1,35.424,51.385Zm11.67,6.547a6.994,6.994,0,0,0-2.678-1.819L38.747,53.84V52.716A6.889,6.889,0,0,0,42,48.661a3.6,3.6,0,0,0,2.074-6.47V39.622a8.906,8.906,0,0,0-.855-3.815h9.76c-.014.742-.043,1.482-.086,2.217a7.4,7.4,0,0,0-6.652,7.35v1.94a3.1,3.1,0,0,0,1.737,5.5,5.73,5.73,0,0,0,2.547,3.158v.617Zm.6-8.972v1.526a.905.905,0,0,1,0-1.526ZM63.423,67.23H49.17V63.412a8.186,8.186,0,0,0-.8-3.625l2.559-1,2.2,2.14a1.1,1.1,0,0,0,.765.311h.017a1.1,1.1,0,0,0,.772-.335l2.075-2.153L60.882,60.4l.05.019A4.077,4.077,0,0,1,63.423,64.4V67.23Z"/>
    </g>
  </g>
</svg>
